<svg width="34" height="16" viewBox="0 0 34 16" fill="none" xmlns="http://www.w3.org/2000/svg">
<path d="M1.60156 7C1.04928 7 0.601562 7.44772 0.601562 8C0.601562 8.55228 1.04928 9 1.60156 9V7ZM33.1914 8.70711C33.5819 8.31658 33.5819 7.68342 33.1914 7.29289L26.8275 0.928932C26.4369 0.538408 25.8038 0.538408 25.4132 0.928932C25.0227 1.31946 25.0227 1.95262 25.4132 2.34315L31.0701 8L25.4132 13.6569C25.0227 14.0474 25.0227 14.6805 25.4132 15.0711C25.8038 15.4616 26.4369 15.4616 26.8275 15.0711L33.1914 8.70711ZM1.60156 9H32.4843V7H1.60156V9Z" fill="white"/>
</svg>
