<svg width="164" height="86" viewBox="0 0 164 86" fill="none" xmlns="http://www.w3.org/2000/svg">
<path d="M-72.2711 82.4374C-72.9436 78.0798 -74.5059 73.9072 -76.8606 70.1794C-79.2154 66.4516 -82.3122 63.2484 -85.9583 60.7691C-85.8859 57.3102 -85.0812 53.9059 -83.5973 50.7807C-82.1133 47.6555 -79.9837 44.8803 -77.349 42.6382C-63.9499 31.4952 -45.2515 34.832 -32.3685 44.9653L-31.5914 45.5786C-34.0636 47.961 -35.8927 50.93 -36.9088 54.2095C-39.3204 62.5486 -30.8292 74.2058 -21.962 68.0167C-13.3927 62.0338 -18.2038 52.4707 -23.9512 45.9882C-22.2056 44.7661 -20.362 43.6903 -18.4394 42.7717C-8.15302 37.946 5.57691 37.2258 16.5446 41.8654C14.1437 45.5916 12.9201 49.8237 13.9878 54.36C15.6411 61.4755 25.9702 66.5929 31.9059 61.1617C39.763 54.004 30.5307 44.6895 23.7583 40.3616C26.7076 37.5585 30.0969 35.258 33.7909 33.5519C40.192 30.645 47.1796 29.2609 54.2055 29.5082C61.2314 29.7555 68.1044 31.6275 74.2853 34.9774C76.0996 35.9706 77.8479 37.0799 79.5194 38.2982C76.9176 41.8568 74.8995 46.1824 75.8363 50.6334C76.2878 52.672 77.3481 54.5253 78.8768 55.9475C80.4054 57.3698 82.3303 58.2939 84.3961 58.5973C86.3323 58.7588 88.2567 58.1706 89.7718 56.9541C91.2869 55.7377 92.277 53.9859 92.5377 52.0605C93.2209 47.6001 90.6711 43.0469 87.8363 39.8363C87.1965 39.1061 86.5206 38.4104 85.8259 37.727C87.2444 36.2622 88.7668 34.9018 90.3812 33.6565C101.593 24.9761 116.624 21.8775 130.489 24.2729C131.928 24.5164 133.345 24.8429 134.748 25.2114C134.767 28.0383 135.062 30.8566 135.628 33.6263C137.487 42.6609 143.44 56.6206 154.298 57.336C164.446 58.0042 165.621 46.8604 162.31 39.8595C158.13 30.9571 148.27 25.2005 139.276 22.1913C138.847 22.0506 138.428 21.9185 138 21.7877C138.338 15.0943 140.294 8.5826 143.701 2.81108C144.447 1.53512 142.257 0.212088 141.469 1.47286C137.802 7.36266 135.556 14.0253 134.909 20.9333C116.618 16.4409 95.6598 21.1032 82.4642 34.8301C68.2747 23.5215 46.9604 21.5701 30.7995 29.6953C26.5757 31.805 22.7426 34.6194 19.4648 38.0175C9.59983 33.6034 -1.45717 32.6121 -11.95 35.2011C-17.6017 36.5629 -22.9553 38.9507 -27.7446 42.246L-28.1157 41.9171C-37.0522 34.4306 -48.7916 29.6504 -60.5966 30.5567C-76.0517 31.7619 -89.3345 43.8075 -91.1153 57.9326C-93.417 56.9648 -95.8375 56.3084 -98.3128 55.9806C-111.357 54.2337 -124.102 61.6044 -129.949 73.1773C-131.46 76.1645 -126.685 78.2404 -125.184 75.2544C-120.407 65.7911 -109.75 59.6731 -99.0988 61.1077C-96.3396 61.4783 -93.6665 62.329 -91.2007 63.6215C-90.7557 67.9203 -89.2962 72.052 -86.9421 75.6763C-84.2933 79.8539 -80.4387 83.129 -75.8883 85.0684C-75.4741 85.2533 -75.0185 85.3258 -74.5674 85.2785C-74.1163 85.2312 -73.6856 85.0658 -73.3188 84.799C-72.9519 84.5322 -72.6619 84.1734 -72.478 83.7588C-72.2941 83.3442 -72.2227 82.8884 -72.2711 82.4374ZM152.099 33.691C155.312 36.0705 157.804 39.2938 159.297 43.0033C161.043 47.7417 160.32 53.7474 153.927 53.1607C144.288 52.2816 139.421 37.449 138.34 29.5512C138.206 28.4091 138.071 27.2669 138.017 26.1254C143.119 27.8006 147.886 30.3617 152.099 33.691ZM87.9487 51.3119C86.738 56.6803 80.7847 52.6386 80.1366 49.4425C79.6275 46.9146 80.9623 44.1396 82.2976 42.1397C82.5184 41.7915 82.7503 41.4521 82.9921 41.1115C86.2727 44.0883 88.7956 47.7283 87.9873 51.2973L87.9487 51.3119ZM26.06 48.0251C28.7417 50.6194 32.4583 57.9854 26.0362 58.4292C25.0596 58.4893 24.0811 58.3485 23.161 58.0156C22.2409 57.6827 21.3988 57.1648 20.6867 56.4937C19.9746 55.8227 19.4075 55.0129 19.0206 54.1142C18.6336 53.2155 18.435 52.2471 18.4369 51.2686C18.451 48.6588 19.2413 46.1122 20.7072 43.953C22.6532 45.0954 24.4621 46.4568 26.0986 48.0105L26.06 48.0251ZM-24.3993 53.1295C-23.6573 54.1738 -23.1324 55.3562 -22.8555 56.6069C-22.5785 57.8576 -22.5552 59.1511 -22.7869 60.4109C-23.7675 64.6547 -28.3248 65.5436 -30.9954 62.2734C-34.7283 57.6783 -31.9472 52.8199 -27.7891 48.9673C-26.4948 50.2173 -25.3449 51.6085 -24.3607 53.1149L-24.3993 53.1295ZM-84.9412 68.2112C-82.38 70.7675 -80.3604 73.8139 -79.0032 77.1684C-81.7685 74.787 -83.8121 71.6792 -84.9026 68.1966L-84.9412 68.2112Z" fill="#FBBD08"/>
</svg>
