<svg width="183" height="229" viewBox="0 0 183 229" fill="none" xmlns="http://www.w3.org/2000/svg">
<g clip-path="url(#clip0_1_798)">

<g clip-path="url(#clip1_1_798)">
<path d="M183.552 -5.75018C183.154 -5.5518 182.756 -5.28729 182.359 -4.95665C180.768 -3.76635 179.642 -1.98091 178.316 -0.393844C175.997 2.5819 173.28 5.16088 170.297 7.21083C170.099 8.7979 168.773 10.0543 167.381 10.0543C167.315 11.2446 167.183 12.3688 167.116 13.5591C163.405 18.0558 160.489 23.4782 158.7 29.2975C157.971 29.3636 157.176 29.4958 156.447 29.6281C155.055 32.6038 153.73 35.5135 152.338 38.4892C151.543 38.6876 150.88 39.3489 150.217 40.0101C148.892 41.3988 147.567 42.7875 146.838 44.6391C145.91 47.0197 146.175 49.8632 145.247 52.2438C144.717 53.5002 143.922 54.5582 143.524 55.8146C143.193 56.8727 143.259 58.1291 143.855 58.9888C143.723 59.3194 143.524 59.5839 143.391 59.9146C141.47 60.9065 139.813 62.5597 138.753 64.7419C138.222 65.0064 137.626 65.2709 137.096 65.4693C136.035 66.9902 134.975 68.5112 133.915 70.0321C132.921 70.0982 131.927 70.2305 130.933 70.2966C129.74 71.6853 128.613 73.074 127.42 74.5288C128.812 74.8594 130.137 75.2562 131.529 75.6529C131.662 76.4465 131.396 77.3061 130.866 77.9013C130.933 79.819 130.999 81.7367 131.065 83.6544C130.601 84.5802 130.071 85.5721 129.607 86.4979L128.746 88.2172C128.547 88.6801 128.282 89.143 128.083 89.5397C128.083 89.6059 128.017 89.672 128.017 89.672C126.36 89.143 124.703 89.0769 123.046 89.4075C123.577 91.1268 124.173 92.78 124.703 94.4993C123.179 97.0783 121.655 99.7234 120.13 102.302C120.859 103.427 119.998 105.08 118.871 105.477C117.745 105.873 116.552 105.344 115.425 104.881C115.955 107.196 115.425 109.775 114.1 111.56C114.895 111.957 114.961 113.28 114.564 114.139C114.166 114.999 113.371 115.528 112.774 116.123C110.919 117.975 109.925 120.686 108.931 123.265C108.334 124.918 107.738 126.571 107.141 128.224C105.683 132.258 102.37 133.382 100.647 137.284C100.448 137.747 100.978 139.4 101.243 140.656C100.912 141.318 100.514 141.913 100.183 142.574C100.05 142.64 99.9842 142.64 99.8516 142.706C98.4599 143.235 96.9357 146.013 96.8694 146.013C96.8694 146.013 96.5381 147.071 96.4718 147.997L96.2067 147.93C96.2067 147.005 96.273 146.079 96.3393 145.153C96.3393 144.822 96.4055 144.492 96.4055 144.161C96.5381 142.177 96.7369 140.127 97.002 138.144C97.0682 137.747 97.0682 137.35 97.1345 137.019C97.2008 136.623 97.2671 136.226 97.2671 135.895C97.5321 133.911 97.8635 131.928 98.1286 129.944C98.2611 129.282 98.3274 128.687 98.4599 128.092C98.6587 126.77 98.9238 125.381 99.1889 124.058C99.3214 123.199 99.5203 122.339 99.7191 121.479C99.8516 120.686 100.05 119.892 100.249 119.099C100.249 119.033 100.249 118.967 100.316 118.9C100.846 116.321 101.508 113.742 102.105 111.163C102.171 111.031 102.171 110.833 102.237 110.634C102.37 109.973 102.569 109.378 102.768 108.717C102.9 108.254 103.033 107.791 103.099 107.328C103.298 106.535 103.563 105.741 103.762 104.947C104.159 103.559 104.557 102.236 104.954 100.848C105.352 99.525 105.75 98.2025 106.214 96.8138C106.479 95.9541 106.744 95.1606 107.009 94.3009C107.274 93.4413 107.539 92.6477 107.87 91.7881C111.913 79.8851 116.817 68.2466 122.582 57.2033C123.444 55.5501 124.306 53.8969 125.167 52.3099C125.233 52.1776 125.3 52.0454 125.366 51.9792C125.697 51.318 126.095 50.6567 126.426 50.0615L127.089 48.9374C129.408 44.9036 131.86 41.0021 134.379 37.1667C135.505 35.4473 136.698 33.7941 137.891 32.141C138.156 31.7442 138.487 31.3474 138.753 30.9507C139.548 29.8926 140.343 28.8346 141.138 27.7765C143.524 24.7347 145.976 21.7589 148.561 18.9816C151.079 16.1381 153.862 13.493 156.646 10.914C158.037 9.65756 159.495 8.46726 160.953 7.21083C161.682 6.61568 162.411 6.02054 163.14 5.49152L165.393 3.83832C166.189 3.3093 166.918 2.71416 167.713 2.25126C168.508 1.78837 169.303 1.25935 170.099 0.796453C171.689 -0.129334 173.213 -1.12125 174.936 -1.91478C175.665 -2.31155 176.461 -2.64218 177.19 -3.03895C177.256 -3.03895 177.322 -3.10508 177.388 -3.10508C178.184 -3.50184 179.045 -3.89861 179.907 -4.16312C181.033 -4.89052 182.292 -5.35342 183.552 -5.75018Z" fill="#FFFFFF"/>
<path d="M183.552 -5.75018C183.154 -5.5518 182.756 -5.28729 182.359 -4.95665C180.768 -3.76635 179.642 -1.98091 178.316 -0.393844C175.997 2.5819 173.28 5.16088 170.297 7.21083C170.099 8.7979 168.773 10.0543 167.381 10.0543C167.315 11.2446 167.183 12.3688 167.116 13.5591C163.405 18.0558 160.489 23.4782 158.7 29.2975C157.971 29.3636 157.176 29.4958 156.447 29.6281C155.055 32.6038 153.73 35.5135 152.338 38.4892C151.543 38.6876 150.88 39.3489 150.217 40.0101C148.892 41.3988 147.567 42.7875 146.838 44.6391C145.91 47.0197 146.175 49.8632 145.247 52.2438C144.717 53.5002 143.922 54.5582 143.524 55.8146C143.193 56.8727 143.259 58.1291 143.855 58.9888C143.723 59.3194 143.524 59.5839 143.391 59.9146C141.47 60.9065 139.813 62.5597 138.753 64.7419C138.222 65.0064 137.626 65.2709 137.096 65.4693C136.035 66.9902 134.975 68.5112 133.915 70.0321C132.921 70.0982 131.927 70.2305 130.933 70.2966C129.74 71.6853 128.613 73.074 127.42 74.5288C128.812 74.8594 130.137 75.2562 131.529 75.6529C131.662 76.4465 131.396 77.3061 130.866 77.9013C130.933 79.819 130.999 81.7367 131.065 83.6544C130.601 84.5802 130.071 85.5721 129.607 86.4979L128.746 88.2172C128.547 88.6801 128.282 89.143 128.083 89.5397C128.083 89.6059 128.017 89.672 128.017 89.672C126.36 89.143 124.703 89.0769 123.046 89.4075C123.577 91.1268 124.173 92.78 124.703 94.4993C123.179 97.0783 121.655 99.7234 120.13 102.302C120.859 103.427 119.998 105.08 118.871 105.477C117.745 105.873 116.552 105.344 115.425 104.881C115.955 107.196 115.425 109.775 114.1 111.56C114.895 111.957 114.961 113.28 114.564 114.139C114.166 114.999 113.371 115.528 112.774 116.123C110.919 117.975 109.925 120.686 108.931 123.265C108.334 124.918 107.738 126.571 107.141 128.224C105.683 132.258 102.37 133.382 100.647 137.284C100.448 137.747 100.978 139.4 101.243 140.656C100.912 141.318 100.514 141.913 100.183 142.574C100.05 142.64 99.9842 142.64 99.8516 142.706C98.4599 143.235 96.9357 146.013 96.8694 146.013C96.8694 146.013 96.5381 147.071 96.4718 147.997L96.2067 147.93C96.2067 147.005 96.273 146.079 96.3393 145.153C96.3393 144.822 96.4055 144.492 96.4055 144.161C96.5381 142.177 96.7369 140.127 97.002 138.144C97.0682 137.747 97.0682 137.35 97.1345 137.019C97.0682 136.027 97.002 135.036 96.8032 134.044C96.6044 133.184 96.4055 132.324 96.5381 131.399C96.7369 130.076 97.6647 129.084 98.4599 128.026C98.725 126.703 98.9238 125.315 99.1889 123.992C99.3214 123.133 99.5203 122.273 99.7191 121.413C99.8516 120.62 100.05 119.826 100.249 119.033C100.249 118.967 100.249 118.9 100.316 118.834C100.05 117.446 99.454 116.189 98.725 115.065C99.6528 113.544 100.846 112.155 102.171 111.097C102.237 110.965 102.237 110.767 102.304 110.568C102.436 109.907 102.635 109.312 102.834 108.651C102.966 108.188 103.099 107.725 103.165 107.262C103.364 106.468 103.629 105.675 103.828 104.881C103.165 101.972 104.159 98.5992 106.214 96.8138C106.479 95.9541 106.744 95.1606 107.009 94.3009C107.274 93.4413 107.539 92.6477 107.87 91.7881C107.738 91.2591 107.738 90.6639 107.738 90.1349C108.003 86.8946 108.997 83.7866 110.654 81.1415C111.383 79.9512 112.311 78.8932 112.841 77.5706C114.1 74.661 113.702 70.9579 115.492 68.445C116.22 67.4531 117.215 66.7257 117.678 65.6015C118.606 63.5516 117.877 60.5758 119.468 59.2533C119.932 58.8565 120.528 58.7243 120.926 58.1952C121.588 57.2033 120.859 55.6824 121.191 54.4921C121.655 52.8389 123.643 52.7728 125.167 52.3099C125.233 52.1776 125.3 52.0454 125.366 51.9792C125.697 51.318 126.095 50.6567 126.426 50.0615L127.089 48.9374V48.8712C127.221 46.6229 128.878 44.9036 130.137 43.2504C131.396 41.5311 132.391 38.9521 131.264 37.1005C132.059 37.5634 132.987 36.5715 133.385 35.5796C133.782 34.5877 134.047 33.3974 134.843 32.9345C135.505 32.5377 136.234 32.7361 136.963 32.6038C137.361 32.5377 137.692 32.3393 137.957 32.141C138.222 31.7442 138.554 31.3474 138.819 30.9507C139.415 29.6942 139.415 28.041 138.487 27.0491C140.409 26.5201 141.801 24.1395 141.47 21.8912C142.795 23.0153 144.518 21.3622 145.446 19.8412C147.567 16.601 149.687 13.4268 151.808 10.1866C152.272 9.5253 152.736 8.7979 153.398 8.46726C154.657 7.80598 156.248 8.59951 157.441 7.80598C158.037 7.40922 158.369 6.68181 158.766 6.02054C161.285 2.25126 166.255 2.31739 169.635 -0.393844C170.894 -1.38576 171.888 -2.84057 173.213 -3.70023C174.539 -4.62601 176.328 -4.95665 177.521 -3.76635C177.388 -3.50184 177.322 -3.30346 177.19 -3.10508C177.256 -3.10508 177.322 -3.17121 177.388 -3.17121C178.184 -3.56797 179.045 -3.96474 179.907 -4.22925C181.033 -4.89052 182.292 -5.35342 183.552 -5.75018Z" fill="#FFFFFF"/>
<path d="M131.197 7.01245C130.932 7.14471 130.667 7.34309 130.402 7.54147C129.408 8.335 128.613 9.45917 127.817 10.4511C126.293 12.3688 124.57 14.022 122.648 15.3445C122.516 16.3364 121.654 17.1961 120.793 17.1961C120.726 17.9235 120.66 18.6509 120.594 19.4444C118.208 22.3541 116.353 25.7927 115.16 29.562C114.696 29.6281 114.166 29.6942 113.702 29.7604C112.84 31.6781 111.912 33.5296 111.051 35.4473C110.521 35.5796 110.123 35.9764 109.726 36.4393C108.864 37.2989 108.003 38.2247 107.539 39.415C106.942 40.9359 107.141 42.7875 106.545 44.3084C106.213 45.102 105.683 45.7632 105.418 46.6229C105.219 47.2842 105.219 48.1438 105.617 48.6729C105.484 48.8713 105.418 49.0696 105.285 49.268C104.026 49.8632 102.966 50.9873 102.303 52.376C101.972 52.5083 101.574 52.7067 101.243 52.8389C100.58 53.8308 99.8512 54.8227 99.1885 55.7485C98.5258 55.8146 97.9294 55.8808 97.2667 55.9469C96.5377 56.8727 95.7424 57.7324 95.0134 58.6581C95.875 58.9227 96.8028 59.121 97.6643 59.3855C97.7305 59.9146 97.598 60.4436 97.2667 60.8403L97.3992 64.5435C97.0678 65.1386 96.7365 65.7338 96.4714 66.3951C96.0075 66.9241 95.6099 67.5854 95.4773 68.3789C95.4773 68.3789 95.4773 68.445 95.4111 68.5112C94.3507 68.1805 93.2904 68.1144 92.2301 68.3128C92.5614 69.4369 92.9591 70.495 93.2904 71.553C92.2964 73.2062 91.3023 74.9255 90.3745 76.5787C90.8384 77.3061 90.3082 78.3642 89.5793 78.6287C88.8503 78.8932 88.055 78.5626 87.326 78.2319C87.6574 79.6867 87.326 81.3399 86.4645 82.5302C86.9947 82.7947 86.9947 83.6544 86.7296 84.1834C86.4645 84.7124 86.0006 85.0431 85.5367 85.506C84.3439 86.6963 83.6812 88.4156 83.0847 90.0688C82.6871 91.1268 82.2895 92.1848 81.9581 93.2429C81.0303 95.8219 78.9097 96.5493 77.7831 99.0621C77.6505 99.3266 77.9819 100.385 78.1807 101.178C77.9156 101.575 77.7168 101.972 77.4517 102.435C77.3854 102.435 77.3192 102.501 77.2529 102.501C76.3914 102.831 75.3973 104.617 75.331 104.617C75.331 104.617 75.1322 105.278 75.066 105.939L74.9997 105.807C74.9997 105.146 75.066 104.485 75.066 103.823C75.066 103.493 75.1322 103.162 75.1322 102.831C75.1322 102.501 75.1985 102.104 75.1985 101.773C75.1985 101.443 75.2648 101.178 75.2648 100.848C75.2648 100.649 75.331 100.451 75.331 100.252C75.331 99.9879 75.3973 99.7895 75.3973 99.525C75.3973 99.2605 75.4636 98.9299 75.5299 98.6654C75.5299 98.4008 75.5961 98.1363 75.5961 97.938C75.7287 96.6154 75.9275 95.359 76.1926 94.1026C76.2588 93.7058 76.3251 93.309 76.3914 92.9123C76.5239 92.0526 76.7227 91.1929 76.8553 90.3333C77.0541 89.2091 77.3192 88.0849 77.518 87.0269C77.8493 85.3737 78.247 83.7205 78.7109 82.0673C78.8434 81.406 79.0422 80.7448 79.241 80.0835C79.4398 79.4222 79.5724 78.7609 79.7712 78.0997C80.0363 77.24 80.3014 76.3803 80.5002 75.4546C80.7652 74.5949 81.0303 73.7352 81.2954 72.8756C81.6268 71.8175 81.9581 70.6934 82.3557 69.6353C84.9403 61.9645 88.1213 54.5582 91.7662 47.4164C92.2963 46.3584 92.8928 45.3004 93.423 44.2423C93.4892 44.1762 93.5555 44.0439 93.5555 43.9778C93.8206 43.5149 94.0194 43.1181 94.2845 42.6552C94.417 42.4569 94.4833 42.2585 94.6158 42.0601C96.0738 39.4811 97.6643 36.9683 99.321 34.5216C100.05 33.3974 100.779 32.3393 101.574 31.2813C101.773 31.0168 101.972 30.7523 102.104 30.4878C102.635 29.8265 103.098 29.0991 103.629 28.4378C105.153 26.5201 106.743 24.6024 108.4 22.7508C110.057 20.8993 111.78 19.2461 113.569 17.5267C114.497 16.7332 115.425 15.9397 116.353 15.1462C116.817 14.7494 117.28 14.4187 117.811 14.022L119.269 12.9639C119.799 12.6333 120.263 12.2365 120.726 11.9059C121.257 11.5753 121.721 11.2446 122.251 10.9801C123.245 10.385 124.239 9.72369 125.365 9.26079C125.829 8.99628 126.359 8.7979 126.823 8.53339C126.89 8.53339 126.89 8.46726 126.956 8.46726C127.486 8.20275 128.016 7.93824 128.546 7.80598C129.54 7.6076 130.402 7.27696 131.197 7.01245Z" fill="#FFFFFF"/>
<path d="M131.197 7.01245C130.932 7.14471 130.667 7.34309 130.402 7.54147C129.408 8.335 128.613 9.45917 127.817 10.4511C126.293 12.3688 124.57 14.022 122.648 15.3445C122.516 16.3364 121.654 17.1961 120.793 17.1961C120.726 17.9235 120.66 18.6509 120.594 19.4444C118.208 22.3541 116.353 25.7927 115.16 29.562C114.696 29.6281 114.166 29.6942 113.702 29.7604C112.84 31.6781 111.912 33.5296 111.051 35.4473C110.521 35.5796 110.123 35.9764 109.726 36.4393C108.864 37.2989 108.003 38.2247 107.539 39.415C106.942 40.9359 107.141 42.7875 106.545 44.3084C106.213 45.102 105.683 45.7632 105.418 46.6229C105.219 47.2842 105.219 48.1438 105.617 48.6729C105.484 48.8713 105.418 49.0696 105.285 49.268C104.026 49.8632 102.966 50.9873 102.303 52.376C101.972 52.5083 101.574 52.7067 101.243 52.8389C100.58 53.8308 99.8512 54.8227 99.1885 55.7485C98.5258 55.8146 97.9294 55.8808 97.2667 55.9469C96.5377 56.8727 95.7424 57.7324 95.0134 58.6581C95.875 58.9227 96.8028 59.121 97.6643 59.3855C97.7305 59.9146 97.598 60.4436 97.2667 60.8403L97.3992 64.5435C97.0678 65.1386 96.7365 65.7338 96.4714 66.3951C96.0075 66.9241 95.6099 67.5854 95.4773 68.3789C95.4773 68.3789 95.4773 68.445 95.4111 68.5112C94.3507 68.1805 93.2904 68.1144 92.2301 68.3128C92.5614 69.4369 92.9591 70.495 93.2904 71.553C92.2964 73.2062 91.3023 74.9255 90.3745 76.5787C90.8384 77.3061 90.3082 78.3642 89.5793 78.6287C88.8503 78.8932 88.055 78.5626 87.326 78.2319C87.6574 79.6867 87.326 81.3399 86.4645 82.5302C86.9947 82.7947 86.9947 83.6544 86.7296 84.1834C86.4645 84.7124 86.0006 85.0431 85.5367 85.506C84.3439 86.6963 83.6812 88.4156 83.0847 90.0688C82.6871 91.1268 82.2895 92.1848 81.9581 93.2429C81.0303 95.8219 78.9097 96.5493 77.7831 99.0621C77.6505 99.3266 77.9819 100.385 78.1807 101.178C77.9156 101.575 77.7168 101.972 77.4517 102.435C77.3854 102.435 77.3192 102.501 77.2529 102.501C76.3914 102.831 75.3973 104.617 75.331 104.617C75.331 104.617 75.1322 105.278 75.066 105.939L74.9997 105.807C74.9997 105.146 75.066 104.485 75.066 103.823C75.066 103.493 75.1322 103.162 75.1322 102.831C75.1322 102.501 75.1985 102.104 75.1985 101.773C75.1985 101.443 75.2648 101.178 75.2648 100.848C75.2648 100.649 75.331 100.451 75.331 100.252C75.331 99.9879 75.3973 99.7895 75.3973 99.525C75.3973 99.2605 75.4636 98.9299 75.5299 98.6654C75.4636 98.0041 75.3973 97.3428 75.331 96.7477C75.1985 96.2186 75.066 95.6235 75.1985 95.0945C75.331 94.2348 75.9275 93.5735 76.4577 92.9123C76.5902 92.0526 76.789 91.1929 76.9215 90.3333C77.1204 89.2091 77.3854 88.0849 77.5843 87.0269C77.3854 86.1672 77.0541 85.3076 76.5239 84.5802C77.1204 83.5883 77.8493 82.7286 78.7109 82.0673C78.8434 81.406 79.0422 80.7448 79.241 80.0835C79.4398 79.4222 79.5724 78.7609 79.7712 78.0997C79.3736 76.2481 79.97 74.0659 81.2954 72.8756C81.6268 71.8175 81.9581 70.6934 82.3557 69.6353C82.2232 69.3047 82.2895 68.9079 82.2895 68.5773C82.422 66.5273 83.0847 64.4774 84.1451 62.8242C84.6089 62.0306 85.2054 61.3694 85.5367 60.5097C86.332 58.6581 86.0669 56.2775 87.1935 54.6244C87.6574 53.9631 88.3201 53.5002 88.6515 52.7728C89.2479 51.4502 88.784 49.5325 89.8443 48.6729C90.1757 48.4084 90.507 48.3422 90.7721 48.0116C91.236 47.3503 90.7059 46.3584 90.9047 45.631C91.236 44.5729 92.4952 44.5729 93.423 44.2423C93.4892 44.1762 93.5555 44.0439 93.5555 43.9778C93.8206 43.5149 94.0194 43.1181 94.2845 42.6552C94.417 42.4569 94.4833 42.2585 94.6158 42.0601C94.6158 42.0601 94.6158 42.0601 94.6158 41.994C94.6821 40.5392 95.7424 39.4811 96.5377 38.357C97.3329 37.2328 97.9956 35.5796 97.2667 34.3893C97.7968 34.7199 98.3933 34.0587 98.5921 33.3974C98.7909 32.7361 98.9897 32.0087 99.5199 31.6781C99.9175 31.4135 100.381 31.5458 100.845 31.4797C101.11 31.4136 101.309 31.3474 101.508 31.149C101.707 30.8845 101.906 30.62 102.038 30.3555C102.436 29.562 102.436 28.5039 101.839 27.8427C103.098 27.512 103.96 25.9911 103.761 24.5363C104.623 25.2637 105.683 24.2056 106.346 23.2137C107.737 21.1638 109.063 19.0477 110.455 16.9977C110.72 16.5348 111.051 16.1381 111.449 15.8736C112.244 15.4768 113.304 15.9397 114.033 15.4768C114.431 15.2123 114.63 14.7494 114.895 14.3526C116.551 11.9059 119.732 11.972 121.853 10.1866C122.648 9.5253 123.311 8.66564 124.173 8.07049C125.034 7.47535 126.161 7.27696 126.89 8.00437C126.823 8.13662 126.757 8.335 126.691 8.46726C126.757 8.46726 126.757 8.40113 126.823 8.40113C127.354 8.13662 127.884 7.87211 128.414 7.73986C129.54 7.6076 130.402 7.27696 131.197 7.01245Z" fill="#FFFFFF"/>
<path d="M253.931 -15.6032C250.087 -14.0823 246.774 -10.7759 243.858 -7.33725C233.983 4.30121 226.627 18.5848 216.223 29.6281C215.295 35.9763 211.584 41.7956 206.614 44.5729C204.095 45.6971 201.312 45.8955 198.661 45.102C199.788 46.6229 200.848 48.21 201.975 49.7309C199.92 50.326 199.854 53.6324 199.854 56.0791C199.788 65.2048 193.823 72.6111 188.986 79.819C183.816 87.4898 179.575 95.888 175.334 104.286C174.273 106.402 173.213 108.452 172.153 110.568C169.369 116.123 165.592 122.339 160.025 122.604C158.634 122.67 157.176 122.339 155.916 122.934C154.657 123.529 153.796 125.645 154.79 126.77C158.037 125.579 160.887 129.811 161.748 133.647C162.61 137.086 161.815 142.243 158.7 142.243C158.567 143.698 158.435 145.153 158.302 146.542C154.26 150.509 150.217 154.543 146.175 158.511C146.97 161.288 146.837 164.396 145.843 167.107C144.054 169.091 140.873 169.025 139.15 166.909C139.084 169.224 139.084 171.472 139.017 173.786C138.023 173.919 137.162 174.448 136.433 175.175C137.162 176.233 137.957 177.291 138.686 178.349C136.632 182.846 134.511 187.409 132.457 191.905C130.866 195.344 129.276 198.783 127.354 201.957C126.36 203.544 124.836 204.8 123.179 203.941C123.179 206.387 123.179 209.032 123.841 211.215C123.51 211.81 123.112 212.339 122.781 212.934L121.92 212.603C122.052 207.115 122.582 201.692 123.245 196.336C123.179 194.815 123.046 193.294 122.715 191.839C122.45 190.583 122.118 189.26 122.317 187.938C122.582 186.02 123.908 184.631 125.034 183.11C124.173 182.581 123.179 182.251 122.251 182.185C124.305 178.217 125.697 173.786 126.293 169.157C126.426 168.099 126.492 167.041 126.89 166.049C126.492 165.19 126.028 164.33 125.498 163.537C126.824 161.354 128.414 159.437 130.27 157.916C130.402 155.535 129.806 153.155 128.48 151.303C129.474 151.038 130.469 150.708 131.463 150.443C131.595 149.187 132.125 148.063 132.722 147.005C132.39 143.566 133.517 139.863 135.638 137.416C135.77 134.837 135.373 132.192 134.511 129.811C137.228 129.745 138.62 125.778 138.355 122.67C138.09 119.496 136.897 116.388 137.493 113.28C139.481 113.742 141.735 112.288 142.464 110.105C142.795 109.047 142.861 107.791 143.126 106.667C143.855 103.757 145.976 101.839 148.229 99.9879C148.627 97.9379 149.157 96.0202 150.283 94.3671C151.344 92.9122 152.802 91.7881 153.597 90.1349C154.989 87.1591 153.862 82.6625 156.314 80.7448C156.579 80.5464 156.844 80.348 157.176 80.2157C157.242 80.1496 157.308 80.0174 157.308 79.9512C157.706 79.0916 157.772 78.0335 157.971 77.0416C158.103 76.3142 158.369 75.5868 158.7 74.9917C158.7 74.5288 158.7 74.0659 158.832 73.6691C159.495 71.2224 162.411 71.1562 164.664 70.4288C163.405 68.5111 162.278 66.3289 162.411 64.0145C162.61 61.4355 165.459 59.2533 167.116 60.9726C170.297 58.7243 172.153 54.2937 171.755 49.9954C172.683 50.1277 173.611 49.797 174.34 49.268C174.207 48.739 174.008 48.2761 173.743 47.8132C174.87 48.4745 176.063 47.2842 176.725 45.9616C177.123 44.6391 177.189 43.1843 176.659 41.9278C177.388 42.0601 178.117 42.0601 178.846 41.8617C178.912 41.7956 178.979 41.7294 179.111 41.6633C179.376 41.4649 179.708 41.3988 180.039 41.3327C181.099 40.7375 181.961 39.8117 182.491 38.5553C183.286 38.6876 184.082 38.7537 184.943 38.886C185.009 38.8198 185.009 38.7537 185.076 38.6876C185.142 38.6214 185.142 38.5553 185.208 38.4231C185.009 37.4312 184.811 36.4392 184.612 35.4473C184.015 32.67 183.485 29.562 184.612 27.0491C185.805 24.404 188.323 23.0815 190.51 21.4944C196.275 17.13 199.655 9.72368 204.559 4.16895C206.812 1.58998 209.397 -0.658361 212.247 -2.37768C214.168 -3.56798 216.289 -4.49376 218.41 -4.29538C219.47 -4.16313 220.398 -3.76636 221.259 -3.10508C224.573 -4.55989 228.218 -5.55181 231.067 -7.86627C232.923 -9.38721 234.447 -11.4372 236.369 -12.8258C238.291 -14.2145 241.008 -14.6774 242.731 -12.892C242.599 -12.5613 242.4 -12.2307 242.201 -11.8339C242.267 -11.9001 242.4 -11.9001 242.466 -11.9662C243.725 -12.4952 244.918 -13.1565 246.177 -13.5533C248.695 -14.479 251.214 -15.3387 253.798 -16.0661L253.931 -15.6032Z" fill="#FFFFFF"/>
</g>
</g>
<defs>
<clipPath id="clip0_1_798">
<rect width="212" height="229" fill="white" transform="translate(-0.000305176)"/>
</clipPath>
<clipPath id="clip1_1_798">
<rect width="212" height="229" fill="white" transform="translate(74.9997 -16)"/>
</clipPath>
</defs>
</svg>
