<svg width="183" height="229" viewBox="0 0 183 229" fill="none" xmlns="http://www.w3.org/2000/svg">
<g clip-path="url(#clip0_1_798)">
<path d="M108.552 10.2498C108.154 10.4482 107.756 10.7127 107.359 11.0433C105.768 12.2336 104.642 14.0191 103.316 15.6062C100.997 18.5819 98.2796 21.1609 95.2974 23.2108C95.0986 24.7979 93.7731 26.0543 92.3815 26.0543C92.3152 27.2446 92.1827 28.3688 92.1164 29.5591C88.4052 34.0558 85.4893 39.4782 83.7 45.2975C82.971 45.3636 82.1758 45.4958 81.4468 45.6281C80.0551 48.6038 78.7297 51.5135 77.338 54.4892C76.5428 54.6876 75.8801 55.3489 75.2174 56.0101C73.8919 57.3988 72.5665 58.7875 71.8375 60.6391C70.9098 63.0197 71.1748 65.8632 70.2471 68.2438C69.7169 69.5002 68.9216 70.5582 68.524 71.8146C68.1927 72.8727 68.2589 74.1291 68.8554 74.9888C68.7228 75.3194 68.524 75.5839 68.3915 75.9146C66.4696 76.9065 64.8129 78.5597 63.7525 80.7419C63.2224 81.0064 62.6259 81.2709 62.0958 81.4693C61.0354 82.9902 59.9751 84.5112 58.9148 86.0321C57.9207 86.0982 56.9266 86.2305 55.9326 86.2966C54.7397 87.6853 53.6131 89.074 52.4202 90.5288C53.8119 90.8594 55.1373 91.2562 56.529 91.6529C56.6616 92.4465 56.3965 93.3061 55.8663 93.9013C55.9326 95.819 55.9988 97.7367 56.0651 99.6544C55.6012 100.58 55.0711 101.572 54.6072 102.498L53.7456 104.217C53.5468 104.68 53.2817 105.143 53.0829 105.54C53.0829 105.606 53.0167 105.672 53.0167 105.672C51.3599 105.143 49.7031 105.077 48.0464 105.407C48.5765 107.127 49.173 108.78 49.7031 110.499C48.1789 113.078 46.6547 115.723 45.1305 118.302C45.8594 119.427 44.9979 121.08 43.8713 121.477C42.7447 121.873 41.5518 121.344 40.4252 120.881C40.9554 123.196 40.4252 125.775 39.0998 127.56C39.8951 127.957 39.9613 129.28 39.5637 130.139C39.1661 130.999 38.3708 131.528 37.7744 132.123C35.9188 133.975 34.9248 136.686 33.9307 139.265C33.3343 140.918 32.7378 142.571 32.1414 144.224C30.6834 148.258 27.3699 149.382 25.6469 153.284C25.4481 153.747 25.9782 155.4 26.2433 156.656C25.9119 157.318 25.5143 157.913 25.183 158.574C25.0504 158.64 24.9842 158.64 24.8516 158.706C23.4599 159.235 21.9357 162.013 21.8694 162.013C21.8694 162.013 21.5381 163.071 21.4718 163.997L21.2067 163.93C21.2067 163.005 21.273 162.079 21.3393 161.153C21.3393 160.822 21.4055 160.492 21.4055 160.161C21.5381 158.177 21.7369 156.127 22.002 154.144C22.0682 153.747 22.0682 153.35 22.1345 153.019C22.2008 152.623 22.2671 152.226 22.2671 151.895C22.5321 149.911 22.8635 147.928 23.1286 145.944C23.2611 145.282 23.3274 144.687 23.4599 144.092C23.6587 142.77 23.9238 141.381 24.1889 140.058C24.3214 139.199 24.5203 138.339 24.7191 137.479C24.8516 136.686 25.0504 135.892 25.2492 135.099C25.2492 135.033 25.2492 134.967 25.3155 134.9C25.8457 132.321 26.5084 129.742 27.1048 127.163C27.1711 127.031 27.1711 126.833 27.2374 126.634C27.3699 125.973 27.5687 125.378 27.7675 124.717C27.9001 124.254 28.0326 123.791 28.0989 123.328C28.2977 122.535 28.5628 121.741 28.7616 120.947C29.1592 119.559 29.5568 118.236 29.9545 116.848C30.3521 115.525 30.7497 114.202 31.2136 112.814C31.4787 111.954 31.7438 111.161 32.0089 110.301C32.2739 109.441 32.539 108.648 32.8704 107.788C36.9129 95.8851 41.8169 84.2466 47.5825 73.2033C48.444 71.5501 49.3055 69.8969 50.167 68.3099C50.2333 68.1776 50.2996 68.0454 50.3658 67.9792C50.6972 67.318 51.0948 66.6567 51.4262 66.0615L52.0889 64.9374C54.4084 60.9036 56.8604 57.0021 59.3787 53.1667C60.5053 51.4473 61.6981 49.7941 62.891 48.141C63.1561 47.7442 63.4874 47.3474 63.7525 46.9507C64.5478 45.8926 65.343 44.8346 66.1383 43.7765C68.524 40.7347 70.976 37.7589 73.5606 34.9816C76.0789 32.1381 78.8622 29.493 81.6456 26.914C83.0373 25.6576 84.4953 24.4673 85.9532 23.2108C86.6822 22.6157 87.4112 22.0205 88.1401 21.4915L90.3933 19.8383C91.1886 19.3093 91.9176 18.7142 92.7128 18.2513C93.5081 17.7884 94.3033 17.2593 95.0986 16.7965C96.6891 15.8707 98.2133 14.8788 99.9363 14.0852C100.665 13.6885 101.461 13.3578 102.19 12.9611C102.256 12.9611 102.322 12.8949 102.388 12.8949C103.184 12.4982 104.045 12.1014 104.907 11.8369C106.033 11.1095 107.292 10.6466 108.552 10.2498Z" fill="#EBE3CC"/>
<path d="M108.552 10.2498C108.154 10.4482 107.756 10.7127 107.359 11.0433C105.768 12.2336 104.642 14.0191 103.316 15.6062C100.997 18.5819 98.2796 21.1609 95.2974 23.2108C95.0986 24.7979 93.7731 26.0543 92.3815 26.0543C92.3152 27.2446 92.1827 28.3688 92.1164 29.5591C88.4052 34.0558 85.4893 39.4782 83.7 45.2975C82.971 45.3636 82.1758 45.4958 81.4468 45.6281C80.0551 48.6038 78.7297 51.5135 77.338 54.4892C76.5428 54.6876 75.8801 55.3489 75.2174 56.0101C73.8919 57.3988 72.5665 58.7875 71.8375 60.6391C70.9098 63.0197 71.1748 65.8632 70.2471 68.2438C69.7169 69.5002 68.9216 70.5582 68.524 71.8146C68.1927 72.8727 68.2589 74.1291 68.8554 74.9888C68.7228 75.3194 68.524 75.5839 68.3915 75.9146C66.4696 76.9065 64.8129 78.5597 63.7525 80.7419C63.2224 81.0064 62.6259 81.2709 62.0958 81.4693C61.0354 82.9902 59.9751 84.5112 58.9148 86.0321C57.9207 86.0982 56.9266 86.2305 55.9326 86.2966C54.7397 87.6853 53.6131 89.074 52.4202 90.5288C53.8119 90.8594 55.1373 91.2562 56.529 91.6529C56.6616 92.4465 56.3965 93.3061 55.8663 93.9013C55.9326 95.819 55.9988 97.7367 56.0651 99.6544C55.6012 100.58 55.0711 101.572 54.6072 102.498L53.7456 104.217C53.5468 104.68 53.2817 105.143 53.0829 105.54C53.0829 105.606 53.0167 105.672 53.0167 105.672C51.3599 105.143 49.7031 105.077 48.0464 105.407C48.5765 107.127 49.173 108.78 49.7031 110.499C48.1789 113.078 46.6547 115.723 45.1305 118.302C45.8594 119.427 44.9979 121.08 43.8713 121.477C42.7447 121.873 41.5518 121.344 40.4252 120.881C40.9554 123.196 40.4252 125.775 39.0998 127.56C39.8951 127.957 39.9613 129.28 39.5637 130.139C39.1661 130.999 38.3708 131.528 37.7744 132.123C35.9188 133.975 34.9248 136.686 33.9307 139.265C33.3343 140.918 32.7378 142.571 32.1414 144.224C30.6834 148.258 27.3699 149.382 25.6469 153.284C25.4481 153.747 25.9782 155.4 26.2433 156.656C25.9119 157.318 25.5143 157.913 25.183 158.574C25.0504 158.64 24.9842 158.64 24.8516 158.706C23.4599 159.235 21.9357 162.013 21.8694 162.013C21.8694 162.013 21.5381 163.071 21.4718 163.997L21.2067 163.93C21.2067 163.005 21.273 162.079 21.3393 161.153C21.3393 160.822 21.4055 160.492 21.4055 160.161C21.5381 158.177 21.7369 156.127 22.002 154.144C22.0682 153.747 22.0682 153.35 22.1345 153.019C22.0682 152.027 22.002 151.036 21.8032 150.044C21.6044 149.184 21.4055 148.324 21.5381 147.399C21.7369 146.076 22.6647 145.084 23.4599 144.026C23.725 142.703 23.9238 141.315 24.1889 139.992C24.3214 139.133 24.5203 138.273 24.7191 137.413C24.8516 136.62 25.0504 135.826 25.2492 135.033C25.2492 134.967 25.2492 134.9 25.3155 134.834C25.0504 133.446 24.454 132.189 23.725 131.065C24.6528 129.544 25.8457 128.155 27.1711 127.097C27.2374 126.965 27.2374 126.767 27.3036 126.568C27.4362 125.907 27.635 125.312 27.8338 124.651C27.9663 124.188 28.0989 123.725 28.1652 123.262C28.364 122.468 28.629 121.675 28.8279 120.881C28.1652 117.972 29.1592 114.599 31.2136 112.814C31.4787 111.954 31.7438 111.161 32.0089 110.301C32.2739 109.441 32.539 108.648 32.8704 107.788C32.7378 107.259 32.7378 106.664 32.7378 106.135C33.0029 102.895 33.997 99.7866 35.6537 97.1415C36.3827 95.9512 37.3105 94.8932 37.8407 93.5706C39.0998 90.661 38.7022 86.9579 40.4915 84.445C41.2205 83.4531 42.2145 82.7257 42.6784 81.6015C43.6062 79.5516 42.8772 76.5758 44.4677 75.2533C44.9316 74.8565 45.5281 74.7243 45.9257 74.1952C46.5884 73.2033 45.8594 71.6824 46.1908 70.4921C46.6547 68.8389 48.6428 68.7728 50.167 68.3099C50.2333 68.1776 50.2996 68.0454 50.3658 67.9792C50.6972 67.318 51.0948 66.6567 51.4262 66.0615L52.0889 64.9374V64.8712C52.2214 62.6229 53.8782 60.9036 55.1373 59.2504C56.3965 57.5311 57.3905 54.9521 56.2639 53.1005C57.0592 53.5634 57.987 52.5715 58.3846 51.5796C58.7822 50.5877 59.0473 49.3974 59.8426 48.9345C60.5053 48.5377 61.2342 48.7361 61.9632 48.6038C62.3608 48.5377 62.6922 48.3393 62.9573 48.141C63.2224 47.7442 63.5537 47.3474 63.8188 46.9507C64.4152 45.6942 64.4152 44.041 63.4874 43.0491C65.4093 42.5201 66.801 40.1395 66.4696 37.8912C67.795 39.0153 69.5181 37.3622 70.4459 35.8412C72.5665 32.601 74.6872 29.4268 76.8079 26.1866C77.2717 25.5253 77.7356 24.7979 78.3983 24.4673C79.6575 23.806 81.248 24.5995 82.4409 23.806C83.0373 23.4092 83.3687 22.6818 83.7663 22.0205C86.2846 18.2513 91.2549 18.3174 94.6347 15.6062C95.8938 14.6142 96.8879 13.1594 98.2133 12.2998C99.5387 11.374 101.328 11.0433 102.521 12.2336C102.388 12.4982 102.322 12.6965 102.19 12.8949C102.256 12.8949 102.322 12.8288 102.388 12.8288C103.184 12.432 104.045 12.0353 104.907 11.7708C106.033 11.1095 107.292 10.6466 108.552 10.2498Z" fill="#EBE3CC"/>
<path d="M196.691 52.7699C196.294 52.9683 195.896 53.2328 195.498 53.5634C193.908 54.7537 192.781 56.5392 191.522 58.1262C189.203 61.102 186.485 63.681 183.503 65.7309C183.304 67.318 181.979 68.5744 180.587 68.5744C180.455 69.7647 180.389 70.8889 180.322 72.0792C176.611 76.5758 173.695 81.9983 171.906 87.8175C171.177 87.8837 170.382 88.0159 169.653 88.0821C168.261 91.0578 166.936 93.9674 165.544 96.9432C164.749 97.1415 164.086 97.8028 163.423 98.4641C162.098 99.8528 160.772 101.241 160.043 103.159C159.116 105.54 159.381 108.383 158.453 110.764C157.923 112.02 157.128 113.078 156.73 114.335C156.399 115.393 156.465 116.649 156.995 117.509C156.862 117.839 156.664 118.104 156.531 118.435C154.609 119.36 152.952 121.08 151.892 123.262C151.362 123.526 150.766 123.725 150.235 123.989C149.175 125.51 148.115 127.031 147.054 128.552C146.06 128.618 145.066 128.751 144.072 128.817C142.879 130.205 141.753 131.594 140.56 133.049C141.952 133.379 143.277 133.776 144.669 134.107C144.801 134.9 144.536 135.76 144.006 136.355C144.072 138.273 144.138 140.191 144.205 142.108C143.741 143.1 143.211 144.026 142.747 145.018C142.018 145.878 141.421 146.936 141.223 148.06C141.223 148.126 141.156 148.192 141.156 148.258C139.5 147.729 137.843 147.663 136.186 147.994C136.716 149.713 137.313 151.366 137.843 153.086C136.319 155.664 134.794 158.31 133.27 160.889C133.999 162.013 133.138 163.666 132.011 164.063C130.884 164.459 129.625 163.997 128.565 163.468C129.095 165.782 128.565 168.361 127.239 170.146C128.035 170.543 128.101 171.866 127.703 172.725C127.306 173.585 126.51 174.114 125.914 174.709C124.058 176.561 123.064 179.272 122.07 181.851C121.474 183.504 120.877 185.157 120.281 186.811C118.823 190.844 115.51 191.969 113.787 195.87C113.588 196.333 114.118 197.986 114.383 199.243C114.052 199.904 113.654 200.499 113.256 201.16C113.19 201.226 113.058 201.226 112.925 201.293C111.533 201.822 110.009 204.599 109.943 204.599C109.943 204.599 109.611 205.657 109.545 206.583L109.28 206.517C109.28 205.591 109.346 204.665 109.413 203.739C109.413 203.409 109.479 203.012 109.479 202.681C109.479 202.549 109.479 202.417 109.479 202.218C109.479 201.888 109.545 201.557 109.545 201.16C109.678 199.639 109.81 198.185 110.009 196.664C110.075 196.267 110.075 195.87 110.142 195.539C110.208 195.143 110.208 194.746 110.274 194.415C110.539 192.431 110.871 190.448 111.136 188.464C111.268 187.803 111.334 187.207 111.467 186.612C111.732 185.29 111.931 183.901 112.196 182.578C112.395 181.719 112.527 180.859 112.726 179.999C112.859 179.206 113.058 178.412 113.256 177.619C113.256 177.553 113.256 177.487 113.323 177.42C113.853 174.841 114.515 172.263 115.112 169.684C115.178 169.485 115.178 169.353 115.244 169.155C115.377 168.493 115.576 167.832 115.775 167.171C115.907 166.642 116.04 166.113 116.172 165.584C116.239 165.319 116.305 164.988 116.437 164.724C116.901 162.939 117.431 161.219 117.962 159.434C118.558 157.516 119.088 155.664 119.751 153.813C120.082 152.887 120.347 151.961 120.679 151.036C124.787 138.868 129.691 127.097 135.59 115.856C136.451 114.136 137.379 112.417 138.373 110.698C138.837 109.904 139.301 109.045 139.698 108.251C139.765 108.185 139.765 108.119 139.831 108.053C139.897 107.854 140.03 107.722 140.096 107.524C142.415 103.49 144.867 99.5883 147.386 95.7529C148.512 94.0335 149.705 92.3803 150.898 90.7272C151.163 90.3304 151.495 89.9336 151.76 89.5369C152.555 88.4788 153.35 87.4208 154.145 86.3627C156.531 83.3209 158.917 80.3451 161.568 77.5678C164.086 74.7243 166.869 72.0792 169.653 69.5002C171.111 68.2438 172.502 67.0535 173.96 65.797C174.689 65.2019 175.418 64.6067 176.214 64.0777L178.467 62.4245C179.262 61.8955 179.991 61.3004 180.786 60.8375C181.581 60.3746 182.377 59.8456 183.172 59.3827C184.762 58.4569 186.287 57.465 188.01 56.6714C188.739 56.2747 189.534 55.944 190.263 55.5473C190.329 55.5473 190.395 55.4811 190.462 55.4811C191.257 55.0844 192.118 54.6876 192.98 54.4231C194.173 53.5634 195.432 53.1667 196.691 52.7699Z" fill="#EBE3CC"/>
<path d="M196.691 52.7699C196.294 52.9683 195.896 53.2328 195.498 53.5634C193.908 54.7537 192.781 56.5392 191.522 58.1262C189.203 61.102 186.485 63.681 183.503 65.7309C183.304 67.318 181.979 68.5744 180.587 68.5744C180.455 69.7647 180.389 70.8889 180.322 72.0792C176.611 76.5758 173.695 81.9983 171.906 87.8175C171.177 87.8837 170.382 88.0159 169.653 88.0821C168.261 91.0578 166.936 93.9674 165.544 96.9432C164.749 97.1415 164.086 97.8028 163.423 98.4641C162.098 99.8528 160.772 101.241 160.043 103.159C159.116 105.54 159.381 108.383 158.453 110.764C157.923 112.02 157.128 113.078 156.73 114.335C156.399 115.393 156.465 116.649 156.995 117.509C156.862 117.839 156.664 118.104 156.531 118.435C154.609 119.36 152.952 121.08 151.892 123.262C151.362 123.526 150.766 123.725 150.235 123.989C149.175 125.51 148.115 127.031 147.054 128.552C146.06 128.618 145.066 128.751 144.072 128.817C142.879 130.205 141.753 131.594 140.56 133.049C141.952 133.379 143.277 133.776 144.669 134.107C144.801 134.9 144.536 135.76 144.006 136.355C144.072 138.273 144.138 140.191 144.205 142.108C143.741 143.1 143.211 144.026 142.747 145.018C142.018 145.878 141.421 146.936 141.223 148.06C141.223 148.126 141.156 148.192 141.156 148.258C139.5 147.729 137.843 147.663 136.186 147.994C136.716 149.713 137.313 151.366 137.843 153.086C136.319 155.664 134.794 158.31 133.27 160.889C133.999 162.013 133.138 163.666 132.011 164.063C130.884 164.459 129.625 163.997 128.565 163.468C129.095 165.782 128.565 168.361 127.239 170.146C128.035 170.543 128.101 171.866 127.703 172.725C127.306 173.585 126.51 174.114 125.914 174.709C124.058 176.561 123.064 179.272 122.07 181.851C121.474 183.504 120.877 185.157 120.281 186.811C118.823 190.844 115.51 191.969 113.787 195.87C113.588 196.333 114.118 197.986 114.383 199.243C114.052 199.904 113.654 200.499 113.256 201.16C113.19 201.226 113.058 201.226 112.925 201.293C111.533 201.822 110.009 204.599 109.943 204.599C109.943 204.599 109.611 205.657 109.545 206.583L109.28 206.517C109.28 205.591 109.346 204.665 109.413 203.739C109.413 203.409 109.479 203.012 109.479 202.681C109.479 202.549 109.479 202.417 109.479 202.218C109.479 201.888 109.545 201.557 109.545 201.16C109.678 199.639 109.81 198.185 110.009 196.664C110.075 196.267 110.075 195.87 110.142 195.539C110.075 194.548 110.009 193.556 109.81 192.564C109.611 191.704 109.413 190.778 109.545 189.919C109.744 188.53 110.738 187.604 111.467 186.546C111.732 185.224 111.931 183.835 112.196 182.512C112.395 181.653 112.527 180.793 112.726 179.933C112.859 179.14 113.058 178.346 113.256 177.553C113.256 177.487 113.256 177.42 113.323 177.354C112.991 175.966 112.461 174.643 111.732 173.585C112.66 172.064 113.853 170.675 115.178 169.617C115.244 169.419 115.244 169.287 115.311 169.088C115.443 168.427 115.642 167.766 115.841 167.105C115.973 166.576 116.106 166.047 116.239 165.518C116.305 165.253 116.371 164.922 116.504 164.658C116.636 164.261 116.702 163.864 116.835 163.468C116.172 160.558 117.166 157.185 119.221 155.4C119.42 154.871 119.552 154.276 119.751 153.747C120.082 152.821 120.347 151.895 120.679 150.969C120.745 150.771 120.811 150.573 120.877 150.374C120.745 149.845 120.745 149.25 120.745 148.721C121.01 145.481 122.004 142.373 123.661 139.728C124.39 138.537 125.318 137.479 125.848 136.157C127.107 133.247 126.709 129.544 128.432 127.031C129.161 126.039 130.155 125.312 130.619 124.188C131.547 122.204 130.818 119.162 132.409 117.839C132.872 117.443 133.469 117.31 133.867 116.781C134.529 115.79 133.8 114.269 134.132 113.078C134.596 111.425 136.584 111.359 138.108 110.896C138.174 110.83 138.174 110.764 138.24 110.632C138.704 109.838 139.168 108.978 139.566 108.185C139.632 108.119 139.632 108.053 139.698 107.986C139.765 107.788 139.897 107.656 139.963 107.457V107.391C140.096 105.143 141.753 103.49 143.012 101.77C144.271 100.051 145.331 97.4722 144.138 95.6867C144.934 96.1496 145.862 95.1577 146.259 94.1658C146.657 93.1739 146.922 91.9836 147.717 91.5207C148.38 91.1239 149.109 91.3223 149.838 91.19C150.235 91.1239 150.567 90.9255 150.898 90.7272C151.163 90.3304 151.495 89.9336 151.76 89.5369C152.356 88.2804 152.356 86.6272 151.428 85.6353C153.35 85.1063 154.742 82.7257 154.41 80.4774C155.736 81.6015 157.459 79.9484 158.453 78.4274C160.574 75.1872 162.694 72.013 164.815 68.7728C165.279 68.1115 165.743 67.3841 166.405 67.0535C167.665 66.3922 169.255 67.1857 170.448 66.3922C171.044 65.9954 171.376 65.268 171.773 64.6067C174.292 60.8375 179.262 60.9036 182.642 58.1262C183.901 57.1343 184.895 55.7456 186.22 54.8199C187.546 53.8941 189.335 53.5634 190.528 54.7537C190.395 54.9521 190.329 55.2166 190.197 55.415C190.263 55.415 190.329 55.3489 190.395 55.3489C191.191 54.9521 192.052 54.5553 192.914 54.2908C194.173 53.5634 195.432 53.1667 196.691 52.7699Z" fill="#EBE3CC"/>
<path d="M56.1973 23.0125C55.9322 23.1447 55.6671 23.3431 55.402 23.5415C54.4079 24.335 53.6127 25.4592 52.8174 26.4511C51.2932 28.3688 49.5702 30.022 47.6483 31.3445C47.5158 32.3364 46.6543 33.1961 45.7928 33.1961C45.7265 33.9235 45.6602 34.6509 45.5939 35.4444C43.2082 38.3541 41.3526 41.7927 40.1597 45.562C39.6959 45.6281 39.1657 45.6942 38.7018 45.7604C37.8403 47.6781 36.9125 49.5296 36.051 51.4473C35.5208 51.5796 35.1232 51.9764 34.7255 52.4393C33.864 53.2989 33.0025 54.2247 32.5386 55.415C31.9422 56.9359 32.141 58.7875 31.5446 60.3084C31.2132 61.102 30.683 61.7632 30.418 62.6229C30.2191 63.2842 30.2191 64.1438 30.6168 64.6729C30.4842 64.8713 30.418 65.0696 30.2854 65.268C29.0263 65.8632 27.9659 66.9873 27.3032 68.376C26.9719 68.5083 26.5742 68.7067 26.2429 68.8389C25.5802 69.8308 24.8512 70.8227 24.1885 71.7485C23.5258 71.8146 22.9294 71.8808 22.2667 71.9469C21.5377 72.8727 20.7424 73.7324 20.0134 74.6581C20.875 74.9227 21.8028 75.121 22.6643 75.3855C22.7305 75.9146 22.598 76.4436 22.2667 76.8403L22.3992 80.5435C22.0678 81.1386 21.7365 81.7338 21.4714 82.3951C21.0075 82.9241 20.6099 83.5854 20.4773 84.3789C20.4773 84.3789 20.4773 84.445 20.4111 84.5112C19.3507 84.1805 18.2904 84.1144 17.2301 84.3128C17.5614 85.4369 17.9591 86.495 18.2904 87.553C17.2964 89.2062 16.3023 90.9255 15.3745 92.5787C15.8384 93.3061 15.3082 94.3642 14.5793 94.6287C13.8503 94.8932 13.055 94.5626 12.326 94.2319C12.6574 95.6867 12.326 97.3399 11.4645 98.5302C11.9947 98.7947 11.9947 99.6544 11.7296 100.183C11.4645 100.712 11.0006 101.043 10.5367 101.506C9.34386 102.696 8.68116 104.416 8.08472 106.069C7.6871 107.127 7.28947 108.185 6.95812 109.243C6.03033 111.822 3.90967 112.549 2.78306 115.062C2.65052 115.327 2.98188 116.385 3.18069 117.178C2.91561 117.575 2.71679 117.972 2.45171 118.435C2.38544 118.435 2.31917 118.501 2.2529 118.501C1.39138 118.831 0.397319 120.617 0.331048 120.617C0.331048 120.617 0.132236 121.278 0.0659655 121.939L-0.000305176 121.807C-0.000305176 121.146 0.0659655 120.485 0.0659655 119.823C0.0659655 119.493 0.132236 119.162 0.132236 118.831C0.132236 118.501 0.198507 118.104 0.198507 117.773C0.198507 117.443 0.264778 117.178 0.264778 116.848C0.264778 116.649 0.331048 116.451 0.331048 116.252C0.331048 115.988 0.397319 115.79 0.397319 115.525C0.397319 115.261 0.46359 114.93 0.52986 114.665C0.52986 114.401 0.596131 114.136 0.596131 113.938C0.728673 112.615 0.927485 111.359 1.19257 110.103C1.25884 109.706 1.32511 109.309 1.39138 108.912C1.52392 108.053 1.72273 107.193 1.85527 106.333C2.05409 105.209 2.31917 104.085 2.51798 103.027C2.84934 101.374 3.24696 99.7205 3.71085 98.0673C3.8434 97.406 4.04221 96.7448 4.24102 96.0835C4.43983 95.4222 4.57237 94.7609 4.77119 94.0997C5.03627 93.24 5.30135 92.3803 5.50016 91.4546C5.76525 90.5949 6.03033 89.7352 6.29541 88.8756C6.62677 87.8175 6.95812 86.6934 7.35574 85.6353C9.9403 77.9645 13.1213 70.5582 16.7662 63.4164C17.2963 62.3584 17.8928 61.3004 18.423 60.2423C18.4892 60.1762 18.5555 60.0439 18.5555 59.9778C18.8206 59.5149 19.0194 59.1181 19.2845 58.6552C19.417 58.4569 19.4833 58.2585 19.6158 58.0601C21.0738 55.4811 22.6643 52.9683 24.321 50.5216C25.05 49.3974 25.779 48.3393 26.5742 47.2813C26.7731 47.0168 26.9719 46.7523 27.1044 46.4878C27.6346 45.8265 28.0985 45.0991 28.6286 44.4378C30.1529 42.5201 31.7434 40.6024 33.4001 38.7508C35.0569 36.8993 36.7799 35.2461 38.5692 33.5267C39.497 32.7332 40.4248 31.9397 41.3526 31.1462C41.8165 30.7494 42.2804 30.4187 42.8106 30.022L44.2685 28.9639C44.7987 28.6333 45.2626 28.2365 45.7265 27.9059C46.2566 27.5753 46.7205 27.2446 47.2507 26.9801C48.2448 26.385 49.2388 25.7237 50.3654 25.2608C50.8293 24.9963 51.3595 24.7979 51.8234 24.5334C51.8897 24.5334 51.8897 24.4673 51.9559 24.4673C52.4861 24.2027 53.0163 23.9382 53.5464 23.806C54.5405 23.6076 55.402 23.277 56.1973 23.0125Z" fill="#EBE3CC"/>
<path d="M56.1973 23.0125C55.9322 23.1447 55.6671 23.3431 55.402 23.5415C54.4079 24.335 53.6127 25.4592 52.8174 26.4511C51.2932 28.3688 49.5702 30.022 47.6483 31.3445C47.5158 32.3364 46.6543 33.1961 45.7928 33.1961C45.7265 33.9235 45.6602 34.6509 45.5939 35.4444C43.2082 38.3541 41.3526 41.7927 40.1597 45.562C39.6959 45.6281 39.1657 45.6942 38.7018 45.7604C37.8403 47.6781 36.9125 49.5296 36.051 51.4473C35.5208 51.5796 35.1232 51.9764 34.7255 52.4393C33.864 53.2989 33.0025 54.2247 32.5386 55.415C31.9422 56.9359 32.141 58.7875 31.5446 60.3084C31.2132 61.102 30.683 61.7632 30.418 62.6229C30.2191 63.2842 30.2191 64.1438 30.6168 64.6729C30.4842 64.8713 30.418 65.0696 30.2854 65.268C29.0263 65.8632 27.9659 66.9873 27.3032 68.376C26.9719 68.5083 26.5742 68.7067 26.2429 68.8389C25.5802 69.8308 24.8512 70.8227 24.1885 71.7485C23.5258 71.8146 22.9294 71.8808 22.2667 71.9469C21.5377 72.8727 20.7424 73.7324 20.0134 74.6581C20.875 74.9227 21.8028 75.121 22.6643 75.3855C22.7305 75.9146 22.598 76.4436 22.2667 76.8403L22.3992 80.5435C22.0678 81.1386 21.7365 81.7338 21.4714 82.3951C21.0075 82.9241 20.6099 83.5854 20.4773 84.3789C20.4773 84.3789 20.4773 84.445 20.4111 84.5112C19.3507 84.1805 18.2904 84.1144 17.2301 84.3128C17.5614 85.4369 17.9591 86.495 18.2904 87.553C17.2964 89.2062 16.3023 90.9255 15.3745 92.5787C15.8384 93.3061 15.3082 94.3642 14.5793 94.6287C13.8503 94.8932 13.055 94.5626 12.326 94.2319C12.6574 95.6867 12.326 97.3399 11.4645 98.5302C11.9947 98.7947 11.9947 99.6544 11.7296 100.183C11.4645 100.712 11.0006 101.043 10.5367 101.506C9.34386 102.696 8.68116 104.416 8.08472 106.069C7.6871 107.127 7.28947 108.185 6.95812 109.243C6.03033 111.822 3.90967 112.549 2.78306 115.062C2.65052 115.327 2.98188 116.385 3.18069 117.178C2.91561 117.575 2.71679 117.972 2.45171 118.435C2.38544 118.435 2.31917 118.501 2.2529 118.501C1.39138 118.831 0.397319 120.617 0.331048 120.617C0.331048 120.617 0.132236 121.278 0.0659655 121.939L-0.000305176 121.807C-0.000305176 121.146 0.0659655 120.485 0.0659655 119.823C0.0659655 119.493 0.132236 119.162 0.132236 118.831C0.132236 118.501 0.198507 118.104 0.198507 117.773C0.198507 117.443 0.264778 117.178 0.264778 116.848C0.264778 116.649 0.331048 116.451 0.331048 116.252C0.331048 115.988 0.397319 115.79 0.397319 115.525C0.397319 115.261 0.46359 114.93 0.52986 114.665C0.46359 114.004 0.397319 113.343 0.331048 112.748C0.198507 112.219 0.0659655 111.623 0.198507 111.094C0.331048 110.235 0.927485 109.574 1.45765 108.912C1.59019 108.053 1.789 107.193 1.92155 106.333C2.12036 105.209 2.38544 104.085 2.58425 103.027C2.38544 102.167 2.05409 101.308 1.52392 100.58C2.12036 99.5883 2.84934 98.7286 3.71085 98.0673C3.8434 97.406 4.04221 96.7448 4.24102 96.0835C4.43983 95.4222 4.57237 94.7609 4.77119 94.0997C4.37356 92.2481 4.97 90.0659 6.29541 88.8756C6.62677 87.8175 6.95812 86.6934 7.35574 85.6353C7.2232 85.3047 7.28947 84.9079 7.28947 84.5773C7.42201 82.5273 8.08472 80.4774 9.14505 78.8242C9.60895 78.0306 10.2054 77.3694 10.5367 76.5097C11.332 74.6581 11.0669 72.2775 12.1935 70.6244C12.6574 69.9631 13.3201 69.5002 13.6515 68.7728C14.2479 67.4502 13.784 65.5325 14.8443 64.6729C15.1757 64.4084 15.507 64.3422 15.7721 64.0116C16.236 63.3503 15.7059 62.3584 15.9047 61.631C16.236 60.5729 17.4952 60.5729 18.423 60.2423C18.4892 60.1762 18.5555 60.0439 18.5555 59.9778C18.8206 59.5149 19.0194 59.1181 19.2845 58.6552C19.417 58.4569 19.4833 58.2585 19.6158 58.0601C19.6158 58.0601 19.6158 58.0601 19.6158 57.994C19.6821 56.5392 20.7424 55.4811 21.5377 54.357C22.3329 53.2328 22.9956 51.5796 22.2667 50.3893C22.7968 50.7199 23.3933 50.0587 23.5921 49.3974C23.7909 48.7361 23.9897 48.0087 24.5199 47.6781C24.9175 47.4135 25.3814 47.5458 25.8453 47.4797C26.1104 47.4136 26.3092 47.3474 26.508 47.149C26.7068 46.8845 26.9056 46.62 27.0381 46.3555C27.4358 45.562 27.4358 44.5039 26.8393 43.8427C28.0985 43.512 28.96 41.9911 28.7612 40.5363C29.6227 41.2637 30.683 40.2056 31.3457 39.2137C32.7374 37.1638 34.0628 35.0477 35.4545 32.9977C35.7196 32.5348 36.051 32.1381 36.4486 31.8736C37.2438 31.4768 38.3042 31.9397 39.0331 31.4768C39.4308 31.2123 39.6296 30.7494 39.8947 30.3526C41.5514 27.9059 44.7324 27.972 46.8531 26.1866C47.6483 25.5253 48.311 24.6656 49.1726 24.0705C50.0341 23.4753 51.1607 23.277 51.8897 24.0044C51.8234 24.1366 51.7571 24.335 51.6908 24.4673C51.7571 24.4673 51.7571 24.4011 51.8234 24.4011C52.3536 24.1366 52.8837 23.8721 53.4139 23.7399C54.5405 23.6076 55.402 23.277 56.1973 23.0125Z" fill="#EBE3CC"/>
<path d="M212 98.5302C211.735 98.6625 211.47 98.8609 211.204 99.0592C210.21 99.8528 209.415 100.977 208.62 102.035C207.096 103.953 205.373 105.606 203.451 106.928C203.318 107.92 202.457 108.78 201.595 108.78C201.529 109.507 201.463 110.301 201.396 111.028C199.011 113.938 197.155 117.377 195.962 121.146C195.498 121.212 194.968 121.278 194.504 121.344C193.643 123.262 192.715 125.114 191.853 127.031C191.323 127.163 190.926 127.626 190.528 128.023C189.666 128.883 188.805 129.809 188.341 130.999C187.745 132.52 187.943 134.371 187.347 135.892C187.016 136.686 186.485 137.347 186.22 138.207C186.022 138.868 186.022 139.728 186.419 140.257C186.287 140.455 186.22 140.654 186.088 140.852C184.829 141.447 183.768 142.571 183.106 143.96C182.774 144.092 182.377 144.291 182.045 144.423C181.383 145.415 180.654 146.407 179.991 147.332C179.328 147.399 178.732 147.465 178.069 147.531C177.34 148.457 176.545 149.316 175.816 150.242C176.677 150.44 177.539 150.705 178.467 150.969C178.533 151.498 178.4 152.027 178.069 152.424C178.069 153.681 178.135 154.937 178.202 156.127C177.87 156.723 177.605 157.384 177.274 157.979C176.81 158.508 176.412 159.169 176.28 159.963C176.28 159.963 176.28 160.029 176.213 160.095C175.153 159.764 174.093 159.698 173.032 159.897C173.364 160.955 173.761 162.079 174.093 163.137C173.099 164.79 172.105 166.509 171.177 168.163C171.641 168.89 171.111 169.948 170.382 170.213C169.653 170.477 168.857 170.146 168.128 169.816C168.46 171.271 168.128 172.924 167.267 174.114C167.731 174.379 167.797 175.172 167.532 175.767C167.267 176.296 166.803 176.627 166.339 177.09C165.146 178.28 164.484 179.999 163.887 181.653C163.49 182.711 163.092 183.769 162.761 184.827C161.833 187.406 159.712 188.133 158.585 190.646C158.453 190.911 158.784 191.969 158.983 192.762C158.784 193.159 158.519 193.556 158.254 194.019C158.188 194.019 158.122 194.085 158.055 194.085C157.194 194.415 156.2 196.201 156.133 196.201C156.133 196.201 155.868 196.862 155.868 197.523L155.736 197.457C155.736 197.193 155.736 196.862 155.736 196.597C155.736 196.399 155.736 196.135 155.736 195.936C155.736 195.539 155.802 195.209 155.802 194.812C155.868 194.217 155.868 193.688 155.935 193.093C156.001 192.233 156.133 191.373 156.2 190.448C156.2 190.183 156.266 189.919 156.266 189.72C156.399 188.464 156.597 187.141 156.862 185.885C156.929 185.488 156.995 185.091 157.061 184.695C157.061 184.628 157.061 184.562 157.128 184.496C157.26 183.703 157.393 182.909 157.591 182.116C157.724 181.587 157.79 180.991 157.923 180.462C158.055 179.933 158.122 179.338 158.254 178.809C158.585 177.156 158.983 175.503 159.447 173.85C159.447 173.783 159.447 173.717 159.513 173.651C159.646 173.122 159.778 172.593 159.911 172.13C160.11 171.403 160.309 170.675 160.507 169.948C160.772 169.088 161.037 168.163 161.236 167.303C161.501 166.443 161.766 165.584 162.032 164.724C162.363 163.666 162.694 162.542 163.092 161.484C165.676 153.813 168.857 146.34 172.502 139.265C173.032 138.207 173.629 137.149 174.159 136.091C174.159 136.025 174.225 135.958 174.225 135.958C174.557 135.297 174.954 134.636 175.352 133.975C175.352 133.975 175.352 133.908 175.418 133.908C176.876 131.33 178.467 128.817 180.123 126.37C180.852 125.312 181.581 124.188 182.377 123.196C182.575 122.931 182.774 122.667 182.907 122.402C183.437 121.741 183.901 121.014 184.431 120.352C185.955 118.435 187.546 116.517 189.203 114.731C190.859 112.88 192.582 111.161 194.372 109.507C195.299 108.714 196.227 107.92 197.155 107.127C197.619 106.73 198.083 106.399 198.547 106.003L200.005 104.945C200.469 104.614 200.999 104.217 201.463 103.887C201.993 103.556 202.457 103.225 202.987 102.961C203.981 102.366 204.975 101.704 206.102 101.241C206.565 100.977 207.096 100.779 207.56 100.514C207.626 100.514 207.626 100.448 207.692 100.448C208.222 100.183 208.752 99.9189 209.283 99.7866C210.409 99.0592 211.204 98.7947 212 98.5302Z" fill="#EBE3CC"/>
<path d="M212 98.5302C211.735 98.6625 211.47 98.8609 211.204 99.0592C210.21 99.8528 209.415 100.977 208.62 102.035C207.096 103.953 205.373 105.606 203.451 106.928C203.318 107.92 202.457 108.78 201.595 108.78C201.529 109.507 201.463 110.301 201.396 111.028C199.011 113.938 197.155 117.377 195.962 121.146C195.498 121.212 194.968 121.278 194.504 121.344C193.643 123.262 192.715 125.114 191.853 127.031C191.323 127.163 190.926 127.626 190.528 128.023C189.666 128.883 188.805 129.809 188.341 130.999C187.745 132.52 187.943 134.371 187.347 135.892C187.016 136.686 186.485 137.347 186.22 138.207C186.022 138.868 186.022 139.728 186.419 140.257C186.287 140.455 186.22 140.654 186.088 140.852C184.829 141.447 183.768 142.571 183.106 143.96C182.774 144.092 182.377 144.291 182.045 144.423C181.383 145.415 180.654 146.407 179.991 147.332C179.328 147.399 178.732 147.465 178.069 147.531C177.34 148.457 176.545 149.316 175.816 150.242C176.677 150.44 177.539 150.705 178.467 150.969C178.533 151.498 178.4 152.027 178.069 152.424C178.069 153.681 178.135 154.937 178.202 156.127C177.87 156.723 177.605 157.384 177.274 157.979C176.81 158.508 176.412 159.169 176.28 159.963C176.28 159.963 176.28 160.029 176.213 160.095C175.153 159.764 174.093 159.698 173.032 159.897C173.364 160.955 173.761 162.079 174.093 163.137C173.099 164.79 172.105 166.509 171.177 168.163C171.641 168.89 171.111 169.948 170.382 170.213C169.653 170.477 168.857 170.146 168.128 169.816C168.46 171.271 168.128 172.924 167.267 174.114C167.731 174.379 167.797 175.172 167.532 175.767C167.267 176.296 166.803 176.627 166.339 177.09C165.146 178.28 164.484 179.999 163.887 181.653C163.49 182.711 163.092 183.769 162.761 184.827C161.833 187.406 159.712 188.133 158.585 190.646C158.453 190.911 158.784 191.969 158.983 192.762C158.784 193.159 158.519 193.556 158.254 194.019C158.188 194.019 158.122 194.085 158.055 194.085C157.194 194.415 156.2 196.201 156.133 196.201C156.133 196.201 155.868 196.862 155.868 197.523L155.736 197.457C155.736 197.193 155.736 196.862 155.736 196.597C155.736 196.399 155.736 196.135 155.736 195.936C155.736 195.539 155.802 195.209 155.802 194.812C155.868 194.217 155.868 193.688 155.935 193.093C156.001 192.233 156.133 191.373 156.2 190.448C156.133 189.786 156.133 189.125 156.001 188.53C155.868 188.001 155.736 187.406 155.802 186.877C155.935 186.017 156.531 185.356 157.061 184.695C157.061 184.628 157.061 184.562 157.128 184.496C157.26 183.703 157.393 182.909 157.591 182.116C157.724 181.587 157.79 180.991 157.923 180.462C158.055 179.933 158.122 179.338 158.254 178.809C158.055 177.949 157.724 177.09 157.194 176.362C157.79 175.371 158.519 174.511 159.381 173.85C159.381 173.783 159.381 173.717 159.447 173.651C159.58 173.122 159.712 172.593 159.845 172.13C160.043 171.403 160.242 170.675 160.441 169.948C160.043 168.096 160.64 165.914 161.965 164.724C162.297 163.666 162.628 162.542 163.026 161.484C162.893 161.153 162.893 160.756 162.959 160.426C163.092 158.376 163.755 156.326 164.815 154.673C165.279 153.879 165.875 153.218 166.207 152.358C167.002 150.507 166.737 148.126 167.863 146.473C168.327 145.811 168.99 145.349 169.321 144.621C169.918 143.299 169.454 141.381 170.514 140.521C170.846 140.257 171.177 140.191 171.442 139.86C171.906 139.199 171.376 138.273 171.575 137.479C171.84 136.421 173.165 136.355 174.093 136.025C174.093 135.958 174.159 135.892 174.159 135.892C174.49 135.231 174.888 134.57 175.286 133.908C175.286 133.908 175.286 133.842 175.352 133.842V133.776C175.418 132.321 176.479 131.263 177.274 130.139C178.069 129.015 178.732 127.362 178.003 126.238C178.533 126.568 179.129 125.907 179.328 125.246C179.593 124.584 179.726 123.857 180.256 123.526C180.654 123.262 181.118 123.394 181.581 123.328C181.846 123.262 182.045 123.196 182.244 122.997C182.443 122.733 182.642 122.468 182.774 122.204C183.106 121.41 183.106 120.352 182.575 119.691C183.835 119.36 184.696 117.839 184.497 116.385C185.359 117.112 186.419 116.054 187.082 115.062C188.474 113.012 189.799 110.896 191.191 108.846C191.456 108.383 191.787 107.986 192.185 107.722C192.98 107.325 194.04 107.788 194.769 107.259C195.167 106.995 195.366 106.532 195.631 106.135C197.221 103.754 200.469 103.754 202.589 101.969C203.384 101.308 204.047 100.448 204.909 99.8528C205.77 99.2576 206.897 99.0592 207.692 99.7866C207.626 99.9189 207.56 100.051 207.493 100.25C207.56 100.25 207.56 100.183 207.626 100.183C208.156 99.9189 208.686 99.6544 209.216 99.5221C210.409 99.0592 211.204 98.7947 212 98.5302Z" fill="#EBE3CC"/>
<path d="M178.931 0.396792C175.087 1.91773 171.774 5.22411 168.858 8.66275C158.983 20.3012 151.627 34.5848 141.223 45.6281C140.295 51.9763 136.584 57.7956 131.614 60.5729C129.095 61.6971 126.312 61.8955 123.661 61.102C124.788 62.6229 125.848 64.21 126.975 65.7309C124.92 66.326 124.854 69.6324 124.854 72.0791C124.788 81.2048 118.823 88.6111 113.986 95.819C108.816 103.49 104.575 111.888 100.334 120.286C99.2735 122.402 98.2132 124.452 97.1528 126.568C94.3694 132.123 90.592 138.339 85.0253 138.604C83.6336 138.67 82.1756 138.339 80.9165 138.934C79.6573 139.529 78.7958 141.645 79.7899 142.77C83.0372 141.579 85.8868 145.811 86.7483 149.647C87.6098 153.086 86.8146 158.243 83.6999 158.243C83.5673 159.698 83.4348 161.153 83.3022 162.542C79.2597 166.509 75.2172 170.543 71.1747 174.511C71.9699 177.288 71.8374 180.396 70.8433 183.107C69.054 185.091 65.873 185.025 64.15 182.909C64.0837 185.224 64.0837 187.472 64.0175 189.786C63.0234 189.919 62.1619 190.448 61.4329 191.175C62.1619 192.233 62.9571 193.291 63.6861 194.349C61.6317 198.846 59.511 203.409 57.4567 207.905C55.8662 211.344 54.2757 214.783 52.3538 217.957C51.3598 219.544 49.8355 220.8 48.1788 219.941C48.1788 222.387 48.1788 225.032 48.8415 227.215C48.5101 227.81 48.1125 228.339 47.7811 228.934L46.9196 228.603C47.0522 223.115 47.5823 217.692 48.245 212.336C48.1788 210.815 48.0462 209.294 47.7149 207.839C47.4498 206.583 47.1184 205.26 47.3172 203.938C47.5823 202.02 48.9077 200.631 50.0343 199.11C49.1728 198.581 48.1788 198.251 47.251 198.185C49.3054 194.217 50.697 189.786 51.2935 185.157C51.426 184.099 51.4923 183.041 51.8899 182.049C51.4923 181.19 51.0284 180.33 50.4982 179.537C51.8236 177.354 53.4141 175.437 55.2697 173.916C55.4023 171.535 54.8058 169.155 53.4804 167.303C54.4745 167.038 55.4685 166.708 56.4626 166.443C56.5951 165.187 57.1253 164.063 57.7217 163.005C57.3904 159.566 58.517 155.863 60.6377 153.416C60.7702 150.837 60.3726 148.192 59.5111 145.811C62.2282 145.745 63.6198 141.778 63.3548 138.67C63.0897 135.496 61.8968 132.388 62.4932 129.28C64.4814 129.742 66.7346 128.288 67.4635 126.105C67.7949 125.047 67.8612 123.791 68.1262 122.667C68.8552 119.757 70.9759 117.839 73.2291 115.988C73.6267 113.938 74.1569 112.02 75.2835 110.367C76.3438 108.912 77.8018 107.788 78.597 106.135C79.9887 103.159 78.8621 98.6625 81.3141 96.7448C81.5792 96.5464 81.8443 96.348 82.1756 96.2157C82.2419 96.1496 82.3082 96.0174 82.3082 95.9512C82.7058 95.0916 82.7721 94.0335 82.9709 93.0416C83.1034 92.3142 83.3685 91.5868 83.6999 90.9917C83.6999 90.5288 83.6999 90.0659 83.8324 89.6691C84.4951 87.2224 87.411 87.1562 89.6642 86.4288C88.4051 84.5111 87.2785 82.3289 87.411 80.0145C87.6098 77.4355 90.4595 75.2533 92.1162 76.9726C95.2972 74.7243 97.1528 70.2937 96.7552 65.9954C97.683 66.1277 98.6108 65.797 99.3397 65.268C99.2072 64.739 99.0084 64.2761 98.7433 63.8132C99.8699 64.4745 101.063 63.2842 101.725 61.9616C102.123 60.6391 102.189 59.1843 101.659 57.9278C102.388 58.0601 103.117 58.0601 103.846 57.8617C103.912 57.7956 103.979 57.7294 104.111 57.6633C104.376 57.4649 104.708 57.3988 105.039 57.3327C106.099 56.7375 106.961 55.8117 107.491 54.5553C108.286 54.6876 109.082 54.7537 109.943 54.886C110.009 54.8198 110.009 54.7537 110.076 54.6876C110.142 54.6214 110.142 54.5553 110.208 54.4231C110.009 53.4312 109.811 52.4392 109.612 51.4473C109.015 48.67 108.485 45.562 109.612 43.0491C110.805 40.404 113.323 39.0815 115.51 37.4944C121.275 33.13 124.655 25.7237 129.559 20.169C131.812 17.59 134.397 15.3416 137.247 13.6223C139.168 12.432 141.289 11.5062 143.41 11.7046C144.47 11.8369 145.398 12.2336 146.259 12.8949C149.573 11.4401 153.218 10.4482 156.067 8.13373C157.923 6.61279 159.447 4.56283 161.369 3.17415C163.291 1.78547 166.008 1.32258 167.731 3.10803C167.599 3.43866 167.4 3.7693 167.201 4.16607C167.267 4.09994 167.4 4.09994 167.466 4.03381C168.725 3.50479 169.918 2.84351 171.177 2.44675C173.695 1.52096 176.214 0.661303 178.798 -0.0661011L178.931 0.396792Z" fill="#EBE3CC"/>
<g clip-path="url(#clip1_1_798)">
<path d="M183.552 -5.75018C183.154 -5.5518 182.756 -5.28729 182.359 -4.95665C180.768 -3.76635 179.642 -1.98091 178.316 -0.393844C175.997 2.5819 173.28 5.16088 170.297 7.21083C170.099 8.7979 168.773 10.0543 167.381 10.0543C167.315 11.2446 167.183 12.3688 167.116 13.5591C163.405 18.0558 160.489 23.4782 158.7 29.2975C157.971 29.3636 157.176 29.4958 156.447 29.6281C155.055 32.6038 153.73 35.5135 152.338 38.4892C151.543 38.6876 150.88 39.3489 150.217 40.0101C148.892 41.3988 147.567 42.7875 146.838 44.6391C145.91 47.0197 146.175 49.8632 145.247 52.2438C144.717 53.5002 143.922 54.5582 143.524 55.8146C143.193 56.8727 143.259 58.1291 143.855 58.9888C143.723 59.3194 143.524 59.5839 143.391 59.9146C141.47 60.9065 139.813 62.5597 138.753 64.7419C138.222 65.0064 137.626 65.2709 137.096 65.4693C136.035 66.9902 134.975 68.5112 133.915 70.0321C132.921 70.0982 131.927 70.2305 130.933 70.2966C129.74 71.6853 128.613 73.074 127.42 74.5288C128.812 74.8594 130.137 75.2562 131.529 75.6529C131.662 76.4465 131.396 77.3061 130.866 77.9013C130.933 79.819 130.999 81.7367 131.065 83.6544C130.601 84.5802 130.071 85.5721 129.607 86.4979L128.746 88.2172C128.547 88.6801 128.282 89.143 128.083 89.5397C128.083 89.6059 128.017 89.672 128.017 89.672C126.36 89.143 124.703 89.0769 123.046 89.4075C123.577 91.1268 124.173 92.78 124.703 94.4993C123.179 97.0783 121.655 99.7234 120.13 102.302C120.859 103.427 119.998 105.08 118.871 105.477C117.745 105.873 116.552 105.344 115.425 104.881C115.955 107.196 115.425 109.775 114.1 111.56C114.895 111.957 114.961 113.28 114.564 114.139C114.166 114.999 113.371 115.528 112.774 116.123C110.919 117.975 109.925 120.686 108.931 123.265C108.334 124.918 107.738 126.571 107.141 128.224C105.683 132.258 102.37 133.382 100.647 137.284C100.448 137.747 100.978 139.4 101.243 140.656C100.912 141.318 100.514 141.913 100.183 142.574C100.05 142.64 99.9842 142.64 99.8516 142.706C98.4599 143.235 96.9357 146.013 96.8694 146.013C96.8694 146.013 96.5381 147.071 96.4718 147.997L96.2067 147.93C96.2067 147.005 96.273 146.079 96.3393 145.153C96.3393 144.822 96.4055 144.492 96.4055 144.161C96.5381 142.177 96.7369 140.127 97.002 138.144C97.0682 137.747 97.0682 137.35 97.1345 137.019C97.2008 136.623 97.2671 136.226 97.2671 135.895C97.5321 133.911 97.8635 131.928 98.1286 129.944C98.2611 129.282 98.3274 128.687 98.4599 128.092C98.6587 126.77 98.9238 125.381 99.1889 124.058C99.3214 123.199 99.5203 122.339 99.7191 121.479C99.8516 120.686 100.05 119.892 100.249 119.099C100.249 119.033 100.249 118.967 100.316 118.9C100.846 116.321 101.508 113.742 102.105 111.163C102.171 111.031 102.171 110.833 102.237 110.634C102.37 109.973 102.569 109.378 102.768 108.717C102.9 108.254 103.033 107.791 103.099 107.328C103.298 106.535 103.563 105.741 103.762 104.947C104.159 103.559 104.557 102.236 104.954 100.848C105.352 99.525 105.75 98.2025 106.214 96.8138C106.479 95.9541 106.744 95.1606 107.009 94.3009C107.274 93.4413 107.539 92.6477 107.87 91.7881C111.913 79.8851 116.817 68.2466 122.582 57.2033C123.444 55.5501 124.306 53.8969 125.167 52.3099C125.233 52.1776 125.3 52.0454 125.366 51.9792C125.697 51.318 126.095 50.6567 126.426 50.0615L127.089 48.9374C129.408 44.9036 131.86 41.0021 134.379 37.1667C135.505 35.4473 136.698 33.7941 137.891 32.141C138.156 31.7442 138.487 31.3474 138.753 30.9507C139.548 29.8926 140.343 28.8346 141.138 27.7765C143.524 24.7347 145.976 21.7589 148.561 18.9816C151.079 16.1381 153.862 13.493 156.646 10.914C158.037 9.65756 159.495 8.46726 160.953 7.21083C161.682 6.61568 162.411 6.02054 163.14 5.49152L165.393 3.83832C166.189 3.3093 166.918 2.71416 167.713 2.25126C168.508 1.78837 169.303 1.25935 170.099 0.796453C171.689 -0.129334 173.213 -1.12125 174.936 -1.91478C175.665 -2.31155 176.461 -2.64218 177.19 -3.03895C177.256 -3.03895 177.322 -3.10508 177.388 -3.10508C178.184 -3.50184 179.045 -3.89861 179.907 -4.16312C181.033 -4.89052 182.292 -5.35342 183.552 -5.75018Z" fill="#189CAB"/>
<path d="M183.552 -5.75018C183.154 -5.5518 182.756 -5.28729 182.359 -4.95665C180.768 -3.76635 179.642 -1.98091 178.316 -0.393844C175.997 2.5819 173.28 5.16088 170.297 7.21083C170.099 8.7979 168.773 10.0543 167.381 10.0543C167.315 11.2446 167.183 12.3688 167.116 13.5591C163.405 18.0558 160.489 23.4782 158.7 29.2975C157.971 29.3636 157.176 29.4958 156.447 29.6281C155.055 32.6038 153.73 35.5135 152.338 38.4892C151.543 38.6876 150.88 39.3489 150.217 40.0101C148.892 41.3988 147.567 42.7875 146.838 44.6391C145.91 47.0197 146.175 49.8632 145.247 52.2438C144.717 53.5002 143.922 54.5582 143.524 55.8146C143.193 56.8727 143.259 58.1291 143.855 58.9888C143.723 59.3194 143.524 59.5839 143.391 59.9146C141.47 60.9065 139.813 62.5597 138.753 64.7419C138.222 65.0064 137.626 65.2709 137.096 65.4693C136.035 66.9902 134.975 68.5112 133.915 70.0321C132.921 70.0982 131.927 70.2305 130.933 70.2966C129.74 71.6853 128.613 73.074 127.42 74.5288C128.812 74.8594 130.137 75.2562 131.529 75.6529C131.662 76.4465 131.396 77.3061 130.866 77.9013C130.933 79.819 130.999 81.7367 131.065 83.6544C130.601 84.5802 130.071 85.5721 129.607 86.4979L128.746 88.2172C128.547 88.6801 128.282 89.143 128.083 89.5397C128.083 89.6059 128.017 89.672 128.017 89.672C126.36 89.143 124.703 89.0769 123.046 89.4075C123.577 91.1268 124.173 92.78 124.703 94.4993C123.179 97.0783 121.655 99.7234 120.13 102.302C120.859 103.427 119.998 105.08 118.871 105.477C117.745 105.873 116.552 105.344 115.425 104.881C115.955 107.196 115.425 109.775 114.1 111.56C114.895 111.957 114.961 113.28 114.564 114.139C114.166 114.999 113.371 115.528 112.774 116.123C110.919 117.975 109.925 120.686 108.931 123.265C108.334 124.918 107.738 126.571 107.141 128.224C105.683 132.258 102.37 133.382 100.647 137.284C100.448 137.747 100.978 139.4 101.243 140.656C100.912 141.318 100.514 141.913 100.183 142.574C100.05 142.64 99.9842 142.64 99.8516 142.706C98.4599 143.235 96.9357 146.013 96.8694 146.013C96.8694 146.013 96.5381 147.071 96.4718 147.997L96.2067 147.93C96.2067 147.005 96.273 146.079 96.3393 145.153C96.3393 144.822 96.4055 144.492 96.4055 144.161C96.5381 142.177 96.7369 140.127 97.002 138.144C97.0682 137.747 97.0682 137.35 97.1345 137.019C97.0682 136.027 97.002 135.036 96.8032 134.044C96.6044 133.184 96.4055 132.324 96.5381 131.399C96.7369 130.076 97.6647 129.084 98.4599 128.026C98.725 126.703 98.9238 125.315 99.1889 123.992C99.3214 123.133 99.5203 122.273 99.7191 121.413C99.8516 120.62 100.05 119.826 100.249 119.033C100.249 118.967 100.249 118.9 100.316 118.834C100.05 117.446 99.454 116.189 98.725 115.065C99.6528 113.544 100.846 112.155 102.171 111.097C102.237 110.965 102.237 110.767 102.304 110.568C102.436 109.907 102.635 109.312 102.834 108.651C102.966 108.188 103.099 107.725 103.165 107.262C103.364 106.468 103.629 105.675 103.828 104.881C103.165 101.972 104.159 98.5992 106.214 96.8138C106.479 95.9541 106.744 95.1606 107.009 94.3009C107.274 93.4413 107.539 92.6477 107.87 91.7881C107.738 91.2591 107.738 90.6639 107.738 90.1349C108.003 86.8946 108.997 83.7866 110.654 81.1415C111.383 79.9512 112.311 78.8932 112.841 77.5706C114.1 74.661 113.702 70.9579 115.492 68.445C116.22 67.4531 117.215 66.7257 117.678 65.6015C118.606 63.5516 117.877 60.5758 119.468 59.2533C119.932 58.8565 120.528 58.7243 120.926 58.1952C121.588 57.2033 120.859 55.6824 121.191 54.4921C121.655 52.8389 123.643 52.7728 125.167 52.3099C125.233 52.1776 125.3 52.0454 125.366 51.9792C125.697 51.318 126.095 50.6567 126.426 50.0615L127.089 48.9374V48.8712C127.221 46.6229 128.878 44.9036 130.137 43.2504C131.396 41.5311 132.391 38.9521 131.264 37.1005C132.059 37.5634 132.987 36.5715 133.385 35.5796C133.782 34.5877 134.047 33.3974 134.843 32.9345C135.505 32.5377 136.234 32.7361 136.963 32.6038C137.361 32.5377 137.692 32.3393 137.957 32.141C138.222 31.7442 138.554 31.3474 138.819 30.9507C139.415 29.6942 139.415 28.041 138.487 27.0491C140.409 26.5201 141.801 24.1395 141.47 21.8912C142.795 23.0153 144.518 21.3622 145.446 19.8412C147.567 16.601 149.687 13.4268 151.808 10.1866C152.272 9.5253 152.736 8.7979 153.398 8.46726C154.657 7.80598 156.248 8.59951 157.441 7.80598C158.037 7.40922 158.369 6.68181 158.766 6.02054C161.285 2.25126 166.255 2.31739 169.635 -0.393844C170.894 -1.38576 171.888 -2.84057 173.213 -3.70023C174.539 -4.62601 176.328 -4.95665 177.521 -3.76635C177.388 -3.50184 177.322 -3.30346 177.19 -3.10508C177.256 -3.10508 177.322 -3.17121 177.388 -3.17121C178.184 -3.56797 179.045 -3.96474 179.907 -4.22925C181.033 -4.89052 182.292 -5.35342 183.552 -5.75018Z" fill="#189CAB"/>
<path d="M131.197 7.01245C130.932 7.14471 130.667 7.34309 130.402 7.54147C129.408 8.335 128.613 9.45917 127.817 10.4511C126.293 12.3688 124.57 14.022 122.648 15.3445C122.516 16.3364 121.654 17.1961 120.793 17.1961C120.726 17.9235 120.66 18.6509 120.594 19.4444C118.208 22.3541 116.353 25.7927 115.16 29.562C114.696 29.6281 114.166 29.6942 113.702 29.7604C112.84 31.6781 111.912 33.5296 111.051 35.4473C110.521 35.5796 110.123 35.9764 109.726 36.4393C108.864 37.2989 108.003 38.2247 107.539 39.415C106.942 40.9359 107.141 42.7875 106.545 44.3084C106.213 45.102 105.683 45.7632 105.418 46.6229C105.219 47.2842 105.219 48.1438 105.617 48.6729C105.484 48.8713 105.418 49.0696 105.285 49.268C104.026 49.8632 102.966 50.9873 102.303 52.376C101.972 52.5083 101.574 52.7067 101.243 52.8389C100.58 53.8308 99.8512 54.8227 99.1885 55.7485C98.5258 55.8146 97.9294 55.8808 97.2667 55.9469C96.5377 56.8727 95.7424 57.7324 95.0134 58.6581C95.875 58.9227 96.8028 59.121 97.6643 59.3855C97.7305 59.9146 97.598 60.4436 97.2667 60.8403L97.3992 64.5435C97.0678 65.1386 96.7365 65.7338 96.4714 66.3951C96.0075 66.9241 95.6099 67.5854 95.4773 68.3789C95.4773 68.3789 95.4773 68.445 95.4111 68.5112C94.3507 68.1805 93.2904 68.1144 92.2301 68.3128C92.5614 69.4369 92.9591 70.495 93.2904 71.553C92.2964 73.2062 91.3023 74.9255 90.3745 76.5787C90.8384 77.3061 90.3082 78.3642 89.5793 78.6287C88.8503 78.8932 88.055 78.5626 87.326 78.2319C87.6574 79.6867 87.326 81.3399 86.4645 82.5302C86.9947 82.7947 86.9947 83.6544 86.7296 84.1834C86.4645 84.7124 86.0006 85.0431 85.5367 85.506C84.3439 86.6963 83.6812 88.4156 83.0847 90.0688C82.6871 91.1268 82.2895 92.1848 81.9581 93.2429C81.0303 95.8219 78.9097 96.5493 77.7831 99.0621C77.6505 99.3266 77.9819 100.385 78.1807 101.178C77.9156 101.575 77.7168 101.972 77.4517 102.435C77.3854 102.435 77.3192 102.501 77.2529 102.501C76.3914 102.831 75.3973 104.617 75.331 104.617C75.331 104.617 75.1322 105.278 75.066 105.939L74.9997 105.807C74.9997 105.146 75.066 104.485 75.066 103.823C75.066 103.493 75.1322 103.162 75.1322 102.831C75.1322 102.501 75.1985 102.104 75.1985 101.773C75.1985 101.443 75.2648 101.178 75.2648 100.848C75.2648 100.649 75.331 100.451 75.331 100.252C75.331 99.9879 75.3973 99.7895 75.3973 99.525C75.3973 99.2605 75.4636 98.9299 75.5299 98.6654C75.5299 98.4008 75.5961 98.1363 75.5961 97.938C75.7287 96.6154 75.9275 95.359 76.1926 94.1026C76.2588 93.7058 76.3251 93.309 76.3914 92.9123C76.5239 92.0526 76.7227 91.1929 76.8553 90.3333C77.0541 89.2091 77.3192 88.0849 77.518 87.0269C77.8493 85.3737 78.247 83.7205 78.7109 82.0673C78.8434 81.406 79.0422 80.7448 79.241 80.0835C79.4398 79.4222 79.5724 78.7609 79.7712 78.0997C80.0363 77.24 80.3014 76.3803 80.5002 75.4546C80.7652 74.5949 81.0303 73.7352 81.2954 72.8756C81.6268 71.8175 81.9581 70.6934 82.3557 69.6353C84.9403 61.9645 88.1213 54.5582 91.7662 47.4164C92.2963 46.3584 92.8928 45.3004 93.423 44.2423C93.4892 44.1762 93.5555 44.0439 93.5555 43.9778C93.8206 43.5149 94.0194 43.1181 94.2845 42.6552C94.417 42.4569 94.4833 42.2585 94.6158 42.0601C96.0738 39.4811 97.6643 36.9683 99.321 34.5216C100.05 33.3974 100.779 32.3393 101.574 31.2813C101.773 31.0168 101.972 30.7523 102.104 30.4878C102.635 29.8265 103.098 29.0991 103.629 28.4378C105.153 26.5201 106.743 24.6024 108.4 22.7508C110.057 20.8993 111.78 19.2461 113.569 17.5267C114.497 16.7332 115.425 15.9397 116.353 15.1462C116.817 14.7494 117.28 14.4187 117.811 14.022L119.269 12.9639C119.799 12.6333 120.263 12.2365 120.726 11.9059C121.257 11.5753 121.721 11.2446 122.251 10.9801C123.245 10.385 124.239 9.72369 125.365 9.26079C125.829 8.99628 126.359 8.7979 126.823 8.53339C126.89 8.53339 126.89 8.46726 126.956 8.46726C127.486 8.20275 128.016 7.93824 128.546 7.80598C129.54 7.6076 130.402 7.27696 131.197 7.01245Z" fill="#189CAB"/>
<path d="M131.197 7.01245C130.932 7.14471 130.667 7.34309 130.402 7.54147C129.408 8.335 128.613 9.45917 127.817 10.4511C126.293 12.3688 124.57 14.022 122.648 15.3445C122.516 16.3364 121.654 17.1961 120.793 17.1961C120.726 17.9235 120.66 18.6509 120.594 19.4444C118.208 22.3541 116.353 25.7927 115.16 29.562C114.696 29.6281 114.166 29.6942 113.702 29.7604C112.84 31.6781 111.912 33.5296 111.051 35.4473C110.521 35.5796 110.123 35.9764 109.726 36.4393C108.864 37.2989 108.003 38.2247 107.539 39.415C106.942 40.9359 107.141 42.7875 106.545 44.3084C106.213 45.102 105.683 45.7632 105.418 46.6229C105.219 47.2842 105.219 48.1438 105.617 48.6729C105.484 48.8713 105.418 49.0696 105.285 49.268C104.026 49.8632 102.966 50.9873 102.303 52.376C101.972 52.5083 101.574 52.7067 101.243 52.8389C100.58 53.8308 99.8512 54.8227 99.1885 55.7485C98.5258 55.8146 97.9294 55.8808 97.2667 55.9469C96.5377 56.8727 95.7424 57.7324 95.0134 58.6581C95.875 58.9227 96.8028 59.121 97.6643 59.3855C97.7305 59.9146 97.598 60.4436 97.2667 60.8403L97.3992 64.5435C97.0678 65.1386 96.7365 65.7338 96.4714 66.3951C96.0075 66.9241 95.6099 67.5854 95.4773 68.3789C95.4773 68.3789 95.4773 68.445 95.4111 68.5112C94.3507 68.1805 93.2904 68.1144 92.2301 68.3128C92.5614 69.4369 92.9591 70.495 93.2904 71.553C92.2964 73.2062 91.3023 74.9255 90.3745 76.5787C90.8384 77.3061 90.3082 78.3642 89.5793 78.6287C88.8503 78.8932 88.055 78.5626 87.326 78.2319C87.6574 79.6867 87.326 81.3399 86.4645 82.5302C86.9947 82.7947 86.9947 83.6544 86.7296 84.1834C86.4645 84.7124 86.0006 85.0431 85.5367 85.506C84.3439 86.6963 83.6812 88.4156 83.0847 90.0688C82.6871 91.1268 82.2895 92.1848 81.9581 93.2429C81.0303 95.8219 78.9097 96.5493 77.7831 99.0621C77.6505 99.3266 77.9819 100.385 78.1807 101.178C77.9156 101.575 77.7168 101.972 77.4517 102.435C77.3854 102.435 77.3192 102.501 77.2529 102.501C76.3914 102.831 75.3973 104.617 75.331 104.617C75.331 104.617 75.1322 105.278 75.066 105.939L74.9997 105.807C74.9997 105.146 75.066 104.485 75.066 103.823C75.066 103.493 75.1322 103.162 75.1322 102.831C75.1322 102.501 75.1985 102.104 75.1985 101.773C75.1985 101.443 75.2648 101.178 75.2648 100.848C75.2648 100.649 75.331 100.451 75.331 100.252C75.331 99.9879 75.3973 99.7895 75.3973 99.525C75.3973 99.2605 75.4636 98.9299 75.5299 98.6654C75.4636 98.0041 75.3973 97.3428 75.331 96.7477C75.1985 96.2186 75.066 95.6235 75.1985 95.0945C75.331 94.2348 75.9275 93.5735 76.4577 92.9123C76.5902 92.0526 76.789 91.1929 76.9215 90.3333C77.1204 89.2091 77.3854 88.0849 77.5843 87.0269C77.3854 86.1672 77.0541 85.3076 76.5239 84.5802C77.1204 83.5883 77.8493 82.7286 78.7109 82.0673C78.8434 81.406 79.0422 80.7448 79.241 80.0835C79.4398 79.4222 79.5724 78.7609 79.7712 78.0997C79.3736 76.2481 79.97 74.0659 81.2954 72.8756C81.6268 71.8175 81.9581 70.6934 82.3557 69.6353C82.2232 69.3047 82.2895 68.9079 82.2895 68.5773C82.422 66.5273 83.0847 64.4774 84.1451 62.8242C84.6089 62.0306 85.2054 61.3694 85.5367 60.5097C86.332 58.6581 86.0669 56.2775 87.1935 54.6244C87.6574 53.9631 88.3201 53.5002 88.6515 52.7728C89.2479 51.4502 88.784 49.5325 89.8443 48.6729C90.1757 48.4084 90.507 48.3422 90.7721 48.0116C91.236 47.3503 90.7059 46.3584 90.9047 45.631C91.236 44.5729 92.4952 44.5729 93.423 44.2423C93.4892 44.1762 93.5555 44.0439 93.5555 43.9778C93.8206 43.5149 94.0194 43.1181 94.2845 42.6552C94.417 42.4569 94.4833 42.2585 94.6158 42.0601C94.6158 42.0601 94.6158 42.0601 94.6158 41.994C94.6821 40.5392 95.7424 39.4811 96.5377 38.357C97.3329 37.2328 97.9956 35.5796 97.2667 34.3893C97.7968 34.7199 98.3933 34.0587 98.5921 33.3974C98.7909 32.7361 98.9897 32.0087 99.5199 31.6781C99.9175 31.4135 100.381 31.5458 100.845 31.4797C101.11 31.4136 101.309 31.3474 101.508 31.149C101.707 30.8845 101.906 30.62 102.038 30.3555C102.436 29.562 102.436 28.5039 101.839 27.8427C103.098 27.512 103.96 25.9911 103.761 24.5363C104.623 25.2637 105.683 24.2056 106.346 23.2137C107.737 21.1638 109.063 19.0477 110.455 16.9977C110.72 16.5348 111.051 16.1381 111.449 15.8736C112.244 15.4768 113.304 15.9397 114.033 15.4768C114.431 15.2123 114.63 14.7494 114.895 14.3526C116.551 11.9059 119.732 11.972 121.853 10.1866C122.648 9.5253 123.311 8.66564 124.173 8.07049C125.034 7.47535 126.161 7.27696 126.89 8.00437C126.823 8.13662 126.757 8.335 126.691 8.46726C126.757 8.46726 126.757 8.40113 126.823 8.40113C127.354 8.13662 127.884 7.87211 128.414 7.73986C129.54 7.6076 130.402 7.27696 131.197 7.01245Z" fill="#189CAB"/>
<path d="M253.931 -15.6032C250.087 -14.0823 246.774 -10.7759 243.858 -7.33725C233.983 4.30121 226.627 18.5848 216.223 29.6281C215.295 35.9763 211.584 41.7956 206.614 44.5729C204.095 45.6971 201.312 45.8955 198.661 45.102C199.788 46.6229 200.848 48.21 201.975 49.7309C199.92 50.326 199.854 53.6324 199.854 56.0791C199.788 65.2048 193.823 72.6111 188.986 79.819C183.816 87.4898 179.575 95.888 175.334 104.286C174.273 106.402 173.213 108.452 172.153 110.568C169.369 116.123 165.592 122.339 160.025 122.604C158.634 122.67 157.176 122.339 155.916 122.934C154.657 123.529 153.796 125.645 154.79 126.77C158.037 125.579 160.887 129.811 161.748 133.647C162.61 137.086 161.815 142.243 158.7 142.243C158.567 143.698 158.435 145.153 158.302 146.542C154.26 150.509 150.217 154.543 146.175 158.511C146.97 161.288 146.837 164.396 145.843 167.107C144.054 169.091 140.873 169.025 139.15 166.909C139.084 169.224 139.084 171.472 139.017 173.786C138.023 173.919 137.162 174.448 136.433 175.175C137.162 176.233 137.957 177.291 138.686 178.349C136.632 182.846 134.511 187.409 132.457 191.905C130.866 195.344 129.276 198.783 127.354 201.957C126.36 203.544 124.836 204.8 123.179 203.941C123.179 206.387 123.179 209.032 123.841 211.215C123.51 211.81 123.112 212.339 122.781 212.934L121.92 212.603C122.052 207.115 122.582 201.692 123.245 196.336C123.179 194.815 123.046 193.294 122.715 191.839C122.45 190.583 122.118 189.26 122.317 187.938C122.582 186.02 123.908 184.631 125.034 183.11C124.173 182.581 123.179 182.251 122.251 182.185C124.305 178.217 125.697 173.786 126.293 169.157C126.426 168.099 126.492 167.041 126.89 166.049C126.492 165.19 126.028 164.33 125.498 163.537C126.824 161.354 128.414 159.437 130.27 157.916C130.402 155.535 129.806 153.155 128.48 151.303C129.474 151.038 130.469 150.708 131.463 150.443C131.595 149.187 132.125 148.063 132.722 147.005C132.39 143.566 133.517 139.863 135.638 137.416C135.77 134.837 135.373 132.192 134.511 129.811C137.228 129.745 138.62 125.778 138.355 122.67C138.09 119.496 136.897 116.388 137.493 113.28C139.481 113.742 141.735 112.288 142.464 110.105C142.795 109.047 142.861 107.791 143.126 106.667C143.855 103.757 145.976 101.839 148.229 99.9879C148.627 97.9379 149.157 96.0202 150.283 94.3671C151.344 92.9122 152.802 91.7881 153.597 90.1349C154.989 87.1591 153.862 82.6625 156.314 80.7448C156.579 80.5464 156.844 80.348 157.176 80.2157C157.242 80.1496 157.308 80.0174 157.308 79.9512C157.706 79.0916 157.772 78.0335 157.971 77.0416C158.103 76.3142 158.369 75.5868 158.7 74.9917C158.7 74.5288 158.7 74.0659 158.832 73.6691C159.495 71.2224 162.411 71.1562 164.664 70.4288C163.405 68.5111 162.278 66.3289 162.411 64.0145C162.61 61.4355 165.459 59.2533 167.116 60.9726C170.297 58.7243 172.153 54.2937 171.755 49.9954C172.683 50.1277 173.611 49.797 174.34 49.268C174.207 48.739 174.008 48.2761 173.743 47.8132C174.87 48.4745 176.063 47.2842 176.725 45.9616C177.123 44.6391 177.189 43.1843 176.659 41.9278C177.388 42.0601 178.117 42.0601 178.846 41.8617C178.912 41.7956 178.979 41.7294 179.111 41.6633C179.376 41.4649 179.708 41.3988 180.039 41.3327C181.099 40.7375 181.961 39.8117 182.491 38.5553C183.286 38.6876 184.082 38.7537 184.943 38.886C185.009 38.8198 185.009 38.7537 185.076 38.6876C185.142 38.6214 185.142 38.5553 185.208 38.4231C185.009 37.4312 184.811 36.4392 184.612 35.4473C184.015 32.67 183.485 29.562 184.612 27.0491C185.805 24.404 188.323 23.0815 190.51 21.4944C196.275 17.13 199.655 9.72368 204.559 4.16895C206.812 1.58998 209.397 -0.658361 212.247 -2.37768C214.168 -3.56798 216.289 -4.49376 218.41 -4.29538C219.47 -4.16313 220.398 -3.76636 221.259 -3.10508C224.573 -4.55989 228.218 -5.55181 231.067 -7.86627C232.923 -9.38721 234.447 -11.4372 236.369 -12.8258C238.291 -14.2145 241.008 -14.6774 242.731 -12.892C242.599 -12.5613 242.4 -12.2307 242.201 -11.8339C242.267 -11.9001 242.4 -11.9001 242.466 -11.9662C243.725 -12.4952 244.918 -13.1565 246.177 -13.5533C248.695 -14.479 251.214 -15.3387 253.798 -16.0661L253.931 -15.6032Z" fill="#189CAB"/>
</g>
</g>
<defs>
<clipPath id="clip0_1_798">
<rect width="212" height="229" fill="white" transform="translate(-0.000305176)"/>
</clipPath>
<clipPath id="clip1_1_798">
<rect width="212" height="229" fill="white" transform="translate(74.9997 -16)"/>
</clipPath>
</defs>
</svg>
